<svg width="812" height="748" viewBox="0 0 812 748" fill="none" xmlns="http://www.w3.org/2000/svg">
<path d="M735.605 730.709C780.921 764.696 848.895 742.039 786.585 679.73C599.659 498.468 639.31 0 407.069 0C174.828 0 214.478 498.468 27.5528 679.73C-40.42 747.703 33.2169 764.696 78.5326 730.709C254.13 611.757 242.801 402.174 407.069 402.174C571.337 402.174 560.008 611.757 735.605 730.709Z" fill="#3186FF"/>
<mask id="mask0_635_258" style="mask-type:alpha" maskUnits="userSpaceOnUse" x="0" y="0" width="812" height="748">
<path d="M735.605 730.709C780.921 764.696 848.895 742.039 786.585 679.73C599.659 498.468 639.31 0 407.069 0C174.828 0 214.478 498.468 27.5528 679.73C-40.42 747.703 33.2169 764.696 78.5326 730.709C254.13 611.757 242.801 402.174 407.069 402.174C571.337 402.174 560.008 611.757 735.605 730.709Z" fill="black"/>
</mask>
<g mask="url(#mask0_635_258)">
<g filter="url(#filter0_f_635_258)">
<path d="M-34.4195 -168.808C-48.2025 -47.3814 56.4364 64.1997 199.298 80.4152C342.159 96.6307 469.145 11.3401 482.928 -110.087C496.711 -231.513 392.072 -343.094 249.21 -359.31C106.349 -375.526 -20.6366 -290.235 -34.4195 -168.808Z" fill="#FFE432"/>
</g>
<g filter="url(#filter1_f_635_258)">
<path d="M516.388 228.184C552.181 382.292 708.872 477.567 866.368 440.987C1023.86 404.407 1122.52 249.824 1086.73 95.7165C1050.94 -58.3913 894.245 -153.666 736.749 -117.086C579.254 -80.5065 480.594 74.0763 516.388 228.184Z" fill="#FC413D"/>
</g>
<g filter="url(#filter2_f_635_258)">
<path d="M-420.797 331.562C-375.569 490.606 -171.88 572.039 34.1548 513.448C240.19 454.858 370.55 278.43 325.323 119.386C280.095 -39.6575 76.4061 -121.091 -129.629 -62.4999C-335.664 -3.90911 -466.025 172.519 -420.797 331.562Z" fill="#00B95C"/>
</g>
<g filter="url(#filter3_f_635_258)">
<path d="M-420.797 331.562C-375.569 490.606 -171.88 572.039 34.1548 513.448C240.19 454.858 370.55 278.43 325.323 119.386C280.095 -39.6575 76.4061 -121.091 -129.629 -62.4999C-335.664 -3.90911 -466.025 172.519 -420.797 331.562Z" fill="#00B95C"/>
</g>
<g filter="url(#filter4_f_635_258)">
<path d="M-257.317 463.391C-143.937 579.197 51.3272 571.889 178.819 447.068C306.31 322.248 317.75 127.182 204.371 11.376C90.9914 -104.43 -104.273 -97.1215 -231.765 27.6991C-359.256 152.52 -370.696 347.586 -257.317 463.391Z" fill="#00B95C"/>
</g>
<g filter="url(#filter5_f_635_258)">
<path d="M335.878 900.137C371.085 1051.72 517.959 1147.12 663.929 1113.22C809.9 1079.32 899.691 928.947 864.484 777.363C829.277 625.778 682.404 530.378 536.433 564.282C390.463 598.185 300.671 748.552 335.878 900.137Z" fill="#3186FF"/>
</g>
<g filter="url(#filter6_f_635_258)">
<path d="M86.9987 -310.631C13.2767 -146.407 93.9337 49.759 267.151 127.518C440.369 205.277 640.553 135.183 714.275 -29.0408C787.997 -193.265 707.34 -389.431 534.123 -467.19C360.905 -544.949 160.721 -474.855 86.9987 -310.631Z" fill="#FBBC04"/>
</g>
<g filter="url(#filter7_f_635_258)">
<path d="M-110.485 1274.49C-288.959 1204.43 16.0481 627.986 91.8923 434.788C167.738 241.59 373.903 141.77 552.377 211.834C730.852 281.897 942.396 667.798 866.548 860.995C790.702 1054.19 67.9891 1344.55 -110.485 1274.49Z" fill="#3186FF"/>
</g>
<g filter="url(#filter8_f_635_258)">
<path d="M970.926 557.018C923.141 612.785 798.453 584.348 692.421 493.5C586.388 402.652 539.165 283.797 586.946 228.029C634.727 172.262 759.418 200.7 865.451 291.547C971.479 382.395 1018.71 501.25 970.926 557.018Z" fill="#749BFF"/>
</g>
<g filter="url(#filter9_f_635_258)">
<path d="M614.242 273.154C810.764 406.091 1037.07 414.824 1119.7 292.66C1202.34 170.496 1110.02 -36.3034 913.499 -169.24C716.977 -302.177 490.674 -310.91 408.037 -188.746C325.399 -66.5822 417.721 140.218 614.242 273.154Z" fill="#FC413D"/>
</g>
<g filter="url(#filter10_f_635_258)">
<path d="M-30.9381 56.9386C-79.625 174.386 -63.7238 292.55 4.57812 320.864C72.8801 349.177 167.718 276.92 216.405 159.472C265.092 42.0247 249.191 -76.1385 180.889 -104.452C112.587 -132.766 17.7488 -60.5092 -30.9381 56.9386Z" fill="#FFEE48"/>
</g>
</g>
<defs>
<filter id="filter0_f_635_258" x="-111.192" y="-436.841" width="670.894" height="594.787" filterUnits="userSpaceOnUse" color-interpolation-filters="sRGB">
<feFlood flood-opacity="0" result="BackgroundImageFix"/>
<feBlend mode="normal" in="SourceGraphic" in2="BackgroundImageFix" result="shape"/>
<feGaussianBlur stdDeviation="37.7768" result="effect1_foregroundBlur_635_258"/>
</filter>
<filter id="filter1_f_635_258" x="143.788" y="-490.168" width="1315.54" height="1304.24" filterUnits="userSpaceOnUse" color-interpolation-filters="sRGB">
<feFlood flood-opacity="0" result="BackgroundImageFix"/>
<feBlend mode="normal" in="SourceGraphic" in2="BackgroundImageFix" result="shape"/>
<feGaussianBlur stdDeviation="182.632" result="effect1_foregroundBlur_635_258"/>
</filter>
<filter id="filter2_f_635_258" x="-740.269" y="-392.01" width="1385.06" height="1234.97" filterUnits="userSpaceOnUse" color-interpolation-filters="sRGB">
<feFlood flood-opacity="0" result="BackgroundImageFix"/>
<feBlend mode="normal" in="SourceGraphic" in2="BackgroundImageFix" result="shape"/>
<feGaussianBlur stdDeviation="155.254" result="effect1_foregroundBlur_635_258"/>
</filter>
<filter id="filter3_f_635_258" x="-740.269" y="-392.01" width="1385.06" height="1234.97" filterUnits="userSpaceOnUse" color-interpolation-filters="sRGB">
<feFlood flood-opacity="0" result="BackgroundImageFix"/>
<feBlend mode="normal" in="SourceGraphic" in2="BackgroundImageFix" result="shape"/>
<feGaussianBlur stdDeviation="155.254" result="effect1_foregroundBlur_635_258"/>
</filter>
<filter id="filter4_f_635_258" x="-645.908" y="-381.422" width="1238.87" height="1237.61" filterUnits="userSpaceOnUse" color-interpolation-filters="sRGB">
<feFlood flood-opacity="0" result="BackgroundImageFix"/>
<feBlend mode="normal" in="SourceGraphic" in2="BackgroundImageFix" result="shape"/>
<feGaussianBlur stdDeviation="155.254" result="effect1_foregroundBlur_635_258"/>
</filter>
<filter id="filter5_f_635_258" x="33.1618" y="262.365" width="1134.04" height="1152.77" filterUnits="userSpaceOnUse" color-interpolation-filters="sRGB">
<feFlood flood-opacity="0" result="BackgroundImageFix"/>
<feBlend mode="normal" in="SourceGraphic" in2="BackgroundImageFix" result="shape"/>
<feGaussianBlur stdDeviation="147.537" result="effect1_foregroundBlur_635_258"/>
</filter>
<filter id="filter6_f_635_258" x="-207.735" y="-766.337" width="1216.74" height="1193" filterUnits="userSpaceOnUse" color-interpolation-filters="sRGB">
<feFlood flood-opacity="0" result="BackgroundImageFix"/>
<feBlend mode="normal" in="SourceGraphic" in2="BackgroundImageFix" result="shape"/>
<feGaussianBlur stdDeviation="133.711" result="effect1_foregroundBlur_635_258"/>
</filter>
<filter id="filter7_f_635_258" x="-404.483" y="-49.3787" width="1525.69" height="1573.37" filterUnits="userSpaceOnUse" color-interpolation-filters="sRGB">
<feFlood flood-opacity="0" result="BackgroundImageFix"/>
<feBlend mode="normal" in="SourceGraphic" in2="BackgroundImageFix" result="shape"/>
<feGaussianBlur stdDeviation="119.409" result="effect1_foregroundBlur_635_258"/>
</filter>
<filter id="filter8_f_635_258" x="354.602" y="-14.2168" width="848.668" height="813.481" filterUnits="userSpaceOnUse" color-interpolation-filters="sRGB">
<feFlood flood-opacity="0" result="BackgroundImageFix"/>
<feBlend mode="normal" in="SourceGraphic" in2="BackgroundImageFix" result="shape"/>
<feGaussianBlur stdDeviation="106.85" result="effect1_foregroundBlur_635_258"/>
</filter>
<filter id="filter9_f_635_258" x="197.262" y="-455.444" width="1133.22" height="1014.8" filterUnits="userSpaceOnUse" color-interpolation-filters="sRGB">
<feFlood flood-opacity="0" result="BackgroundImageFix"/>
<feBlend mode="normal" in="SourceGraphic" in2="BackgroundImageFix" result="shape"/>
<feGaussianBlur stdDeviation="90.2472" result="effect1_foregroundBlur_635_258"/>
</filter>
<filter id="filter10_f_635_258" x="-282.546" y="-333.988" width="750.558" height="884.386" filterUnits="userSpaceOnUse" color-interpolation-filters="sRGB">
<feFlood flood-opacity="0" result="BackgroundImageFix"/>
<feBlend mode="normal" in="SourceGraphic" in2="BackgroundImageFix" result="shape"/>
<feGaussianBlur stdDeviation="111.696" result="effect1_foregroundBlur_635_258"/>
</filter>
</defs>
</svg>
