<svg width="1006" height="1006" viewBox="0 0 1006 1006" fill="none" xmlns="http://www.w3.org/2000/svg">
<path d="M832.312 860.36C877.628 894.346 945.602 871.689 883.292 809.38C696.366 628.118 736.017 129.65 503.776 129.65C271.535 129.65 311.186 628.118 124.26 809.38C56.287 877.353 129.924 894.346 175.24 860.36C350.837 741.407 339.508 531.824 503.776 531.824C668.044 531.824 656.715 741.407 832.312 860.36Z" fill="#3186FF"/>
<mask id="mask0_635_306" style="mask-type:alpha" maskUnits="userSpaceOnUse" x="96" y="129" width="813" height="749">
<path d="M832.311 860.36C877.627 894.346 945.601 871.689 883.291 809.38C696.365 628.118 736.016 129.65 503.775 129.65C271.534 129.65 311.185 628.118 124.259 809.38C56.286 877.353 129.923 894.346 175.239 860.36C350.836 741.407 339.507 531.824 503.775 531.824C668.043 531.824 656.714 741.407 832.311 860.36Z" fill="black"/>
</mask>
<g mask="url(#mask0_635_306)">
<g filter="url(#filter0_f_635_306)">
<path d="M62.287 -39.1578C48.5041 82.269 153.143 193.85 296.004 210.066C438.866 226.281 565.851 140.991 579.634 19.5638C593.417 -101.863 488.778 -213.444 345.917 -229.66C203.055 -245.875 76.0699 -160.585 62.287 -39.1578Z" fill="#FFE432"/>
</g>
<g filter="url(#filter1_f_635_306)">
<path d="M613.094 357.835C648.887 511.942 805.579 607.218 963.074 570.638C1120.57 534.058 1219.23 379.475 1183.44 225.367C1147.64 71.2591 990.951 -24.016 833.456 12.5639C675.96 49.1438 577.301 203.727 613.094 357.835Z" fill="#FC413D"/>
</g>
<g filter="url(#filter2_f_635_306)">
<path d="M-324.09 461.213C-278.862 620.256 -75.1735 701.69 130.862 643.099C336.897 584.508 467.257 408.08 422.03 249.037C376.802 89.9929 173.113 8.55971 -32.9221 67.1505C-238.957 125.741 -369.318 302.169 -324.09 461.213Z" fill="#00B95C"/>
</g>
<g filter="url(#filter3_f_635_306)">
<path d="M-324.09 461.213C-278.862 620.256 -75.1735 701.69 130.862 643.099C336.897 584.508 467.257 408.08 422.03 249.037C376.802 89.9929 173.113 8.55971 -32.9221 67.1505C-238.957 125.741 -369.318 302.169 -324.09 461.213Z" fill="#00B95C"/>
</g>
<g filter="url(#filter4_f_635_306)">
<path d="M-160.61 593.042C-47.2304 708.847 148.034 701.539 275.526 576.719C403.017 451.898 414.457 256.832 301.078 141.026C187.698 25.2208 -7.56619 32.5289 -135.058 157.35C-262.549 282.17 -273.989 477.236 -160.61 593.042Z" fill="#00B95C"/>
</g>
<g filter="url(#filter5_f_635_306)">
<path d="M432.585 1029.79C467.792 1181.37 614.666 1276.77 760.636 1242.87C906.607 1208.97 996.399 1058.6 961.191 907.013C925.984 755.429 779.111 660.029 633.14 693.932C487.17 727.835 397.378 878.203 432.585 1029.79Z" fill="#3186FF"/>
</g>
<g filter="url(#filter6_f_635_306)">
<path d="M183.706 -180.98C109.984 -16.7565 190.641 179.409 363.858 257.168C537.076 334.927 737.26 264.834 810.982 100.61C884.704 -63.6143 804.047 -259.78 630.83 -337.539C457.612 -415.298 257.428 -345.204 183.706 -180.98Z" fill="#FBBC04"/>
</g>
<g filter="url(#filter7_f_635_306)">
<path d="M-13.7788 1404.14C-192.253 1334.08 112.755 757.637 188.599 564.438C264.444 371.241 470.61 271.42 649.084 341.484C827.558 411.548 1039.1 797.449 963.255 990.645C887.409 1183.84 164.696 1474.21 -13.7788 1404.14Z" fill="#3186FF"/>
</g>
<g filter="url(#filter8_f_635_306)">
<path d="M1067.63 686.668C1019.85 742.435 895.159 713.998 789.127 623.15C683.094 532.302 635.871 413.448 683.652 357.68C731.433 301.913 856.124 330.351 962.157 421.198C1068.18 512.045 1115.42 630.9 1067.63 686.668Z" fill="#749BFF"/>
</g>
<g filter="url(#filter9_f_635_306)">
<path d="M710.949 402.805C907.471 535.741 1133.77 544.475 1216.41 422.311C1299.05 300.147 1206.73 93.347 1010.21 -39.5897C813.684 -172.526 587.381 -181.26 504.743 -59.0957C422.106 63.0682 514.427 269.868 710.949 402.805Z" fill="#FC413D"/>
</g>
<g filter="url(#filter10_f_635_306)">
<path d="M65.7685 186.589C17.0816 304.037 32.9827 422.2 101.285 450.514C169.587 478.828 264.425 406.571 313.112 289.123C361.799 171.675 345.897 53.5119 277.595 25.1979C209.294 -3.11601 114.455 69.1412 65.7685 186.589Z" fill="#FFEE48"/>
</g>
</g>
<defs>
<filter id="filter0_f_635_306" x="-14.4863" y="-307.19" width="670.894" height="594.787" filterUnits="userSpaceOnUse" color-interpolation-filters="sRGB">
<feFlood flood-opacity="0" result="BackgroundImageFix"/>
<feBlend mode="normal" in="SourceGraphic" in2="BackgroundImageFix" result="shape"/>
<feGaussianBlur stdDeviation="37.7768" result="effect1_foregroundBlur_635_306"/>
</filter>
<filter id="filter1_f_635_306" x="240.495" y="-360.517" width="1315.54" height="1304.24" filterUnits="userSpaceOnUse" color-interpolation-filters="sRGB">
<feFlood flood-opacity="0" result="BackgroundImageFix"/>
<feBlend mode="normal" in="SourceGraphic" in2="BackgroundImageFix" result="shape"/>
<feGaussianBlur stdDeviation="182.632" result="effect1_foregroundBlur_635_306"/>
</filter>
<filter id="filter2_f_635_306" x="-643.562" y="-262.36" width="1385.06" height="1234.97" filterUnits="userSpaceOnUse" color-interpolation-filters="sRGB">
<feFlood flood-opacity="0" result="BackgroundImageFix"/>
<feBlend mode="normal" in="SourceGraphic" in2="BackgroundImageFix" result="shape"/>
<feGaussianBlur stdDeviation="155.254" result="effect1_foregroundBlur_635_306"/>
</filter>
<filter id="filter3_f_635_306" x="-643.562" y="-262.36" width="1385.06" height="1234.97" filterUnits="userSpaceOnUse" color-interpolation-filters="sRGB">
<feFlood flood-opacity="0" result="BackgroundImageFix"/>
<feBlend mode="normal" in="SourceGraphic" in2="BackgroundImageFix" result="shape"/>
<feGaussianBlur stdDeviation="155.254" result="effect1_foregroundBlur_635_306"/>
</filter>
<filter id="filter4_f_635_306" x="-549.201" y="-251.772" width="1238.87" height="1237.61" filterUnits="userSpaceOnUse" color-interpolation-filters="sRGB">
<feFlood flood-opacity="0" result="BackgroundImageFix"/>
<feBlend mode="normal" in="SourceGraphic" in2="BackgroundImageFix" result="shape"/>
<feGaussianBlur stdDeviation="155.254" result="effect1_foregroundBlur_635_306"/>
</filter>
<filter id="filter5_f_635_306" x="129.869" y="392.015" width="1134.04" height="1152.77" filterUnits="userSpaceOnUse" color-interpolation-filters="sRGB">
<feFlood flood-opacity="0" result="BackgroundImageFix"/>
<feBlend mode="normal" in="SourceGraphic" in2="BackgroundImageFix" result="shape"/>
<feGaussianBlur stdDeviation="147.537" result="effect1_foregroundBlur_635_306"/>
</filter>
<filter id="filter6_f_635_306" x="-111.028" y="-636.687" width="1216.74" height="1193" filterUnits="userSpaceOnUse" color-interpolation-filters="sRGB">
<feFlood flood-opacity="0" result="BackgroundImageFix"/>
<feBlend mode="normal" in="SourceGraphic" in2="BackgroundImageFix" result="shape"/>
<feGaussianBlur stdDeviation="133.711" result="effect1_foregroundBlur_635_306"/>
</filter>
<filter id="filter7_f_635_306" x="-307.777" y="80.2717" width="1525.69" height="1573.37" filterUnits="userSpaceOnUse" color-interpolation-filters="sRGB">
<feFlood flood-opacity="0" result="BackgroundImageFix"/>
<feBlend mode="normal" in="SourceGraphic" in2="BackgroundImageFix" result="shape"/>
<feGaussianBlur stdDeviation="119.409" result="effect1_foregroundBlur_635_306"/>
</filter>
<filter id="filter8_f_635_306" x="451.308" y="115.434" width="848.668" height="813.481" filterUnits="userSpaceOnUse" color-interpolation-filters="sRGB">
<feFlood flood-opacity="0" result="BackgroundImageFix"/>
<feBlend mode="normal" in="SourceGraphic" in2="BackgroundImageFix" result="shape"/>
<feGaussianBlur stdDeviation="106.85" result="effect1_foregroundBlur_635_306"/>
</filter>
<filter id="filter9_f_635_306" x="293.969" y="-325.793" width="1133.22" height="1014.8" filterUnits="userSpaceOnUse" color-interpolation-filters="sRGB">
<feFlood flood-opacity="0" result="BackgroundImageFix"/>
<feBlend mode="normal" in="SourceGraphic" in2="BackgroundImageFix" result="shape"/>
<feGaussianBlur stdDeviation="90.2472" result="effect1_foregroundBlur_635_306"/>
</filter>
<filter id="filter10_f_635_306" x="-185.839" y="-204.337" width="750.558" height="884.386" filterUnits="userSpaceOnUse" color-interpolation-filters="sRGB">
<feFlood flood-opacity="0" result="BackgroundImageFix"/>
<feBlend mode="normal" in="SourceGraphic" in2="BackgroundImageFix" result="shape"/>
<feGaussianBlur stdDeviation="111.696" result="effect1_foregroundBlur_635_306"/>
</filter>
</defs>
</svg>
