<svg width="1000" height="1000" viewBox="0 0 1000 1000" fill="none" xmlns="http://www.w3.org/2000/svg">
<path d="M851.562 390.617H814.062L804.688 437.492H775L784.375 390.617H746.094L736.719 437.492H695.312V476.555H729.688L722.656 507.805H695.312V546.867H714.844L705.469 593.742H742.969L752.344 546.867H782.031L772.656 593.742H810.938L820.312 546.867H859.375V507.805H827.344L834.375 476.555H859.375V437.492H842.188L851.562 390.617ZM789.844 507.805H760.156L767.188 476.555H796.875L789.844 507.805ZM910.156 252.336C905.469 243.742 899.219 235.93 892.188 232.023L516.406 14.8359C510.156 10.9297 501.562 9.36719 492.188 9.36719C482.812 9.36719 474.219 11.7109 467.969 14.8359L89.0625 232.023C75.7812 239.836 62.5 259.367 62.5 274.211V709.367C62.5 717.961 67.9687 727.336 73.4375 735.93L74.2188 736.711C78.125 742.961 84.375 748.43 89.8438 751.555L467.188 969.523C473.438 973.43 482.812 974.992 492.188 974.992C501.562 974.992 510.156 972.648 516.406 969.523L887.5 751.555C900.781 743.742 906.25 724.211 906.25 709.367V274.211C906.25 267.961 909.375 260.148 906.25 253.898L910.156 252.336ZM877.344 268.742C877.344 271.086 875 272.648 875 274.211V709.367C875 715.617 873.438 722.648 871.875 724.992L500 942.18C499.219 942.961 496.094 943.742 491.406 943.742C486.719 943.742 483.594 942.961 482.812 942.18L106.25 724.992C106.25 724.992 105.469 724.211 104.687 724.211L100 719.523C96.875 714.055 101.562 710.93 93.75 710.148V274.992C101.562 271.086 100.781 261.711 104.687 260.148L482.031 42.1797C482.812 42.1797 486.719 40.6172 491.406 40.6172C496.094 40.6172 499.219 41.3984 500 42.1797L875 258.586L878.125 265.617C878.906 266.398 877.344 267.961 877.344 268.742ZM492.188 683.586C386.719 683.586 300.781 597.648 300.781 492.18C300.781 386.711 386.719 300.773 492.188 300.773C563.281 300.773 625.781 339.836 658.594 398.43L760.156 339.836C707.031 246.867 607.031 183.586 492.188 183.586C321.875 183.586 183.594 321.867 183.594 492.18C183.594 662.492 321.875 800.773 492.188 800.773C606.25 800.773 706.25 738.273 759.375 646.086L658.594 586.711C625.781 644.523 563.281 683.586 492.188 683.586Z" fill="url(#paint0_radial_500_297)"/>
<path d="M492.188 8.86719C501.596 8.86719 510.293 10.4321 516.656 14.4033L892.43 231.586C899.581 235.559 905.888 243.468 910.595 252.097L910.865 252.591L910.342 252.8L906.927 254.165C908.323 257.296 908.293 260.748 907.919 264.11C907.723 265.878 907.426 267.657 907.185 269.35C906.941 271.055 906.75 272.686 906.75 274.211V709.367C906.75 716.844 905.374 725.501 902.321 733.28C899.27 741.055 894.525 748.002 887.754 751.985H887.753L516.659 969.954L516.645 969.963L516.63 969.971C510.312 973.13 501.641 975.492 492.188 975.492C482.787 975.492 473.306 973.93 466.938 969.956L89.5957 751.988V751.989C84.0807 748.838 77.7852 743.335 73.8271 737.026L73.0449 736.244L73.0156 736.198C70.2799 731.899 67.5291 727.382 65.4629 722.856C63.3977 718.333 62 713.765 62 709.367V274.211C62 266.656 65.3724 257.967 70.3809 250.209C75.3923 242.446 82.0851 235.548 88.8086 231.593L88.8135 231.59L467.72 14.4023L467.745 14.3887C474.063 11.2295 482.734 8.86719 492.188 8.86719ZM491.406 41.1172C489.116 41.1172 487.009 41.4988 485.368 41.8848C484.547 42.0779 483.849 42.2713 483.295 42.4189C483.021 42.492 482.777 42.5554 482.575 42.6006C482.442 42.6305 482.306 42.6555 482.182 42.6689L104.938 260.581L104.906 260.6L104.873 260.612C104.068 260.934 103.457 261.677 102.874 262.807C102.288 263.944 101.796 265.332 101.145 266.885C99.8929 269.87 98.1286 273.242 94.25 275.295V709.702C95.9667 709.906 97.1136 710.243 97.8672 710.763C98.7332 711.36 99.0209 712.152 99.1289 713.017C99.341 714.714 98.9441 716.629 100.403 719.22L104.909 723.726C105.362 723.783 105.765 724.003 106.039 724.186C106.206 724.297 106.345 724.407 106.441 724.49C106.487 724.53 106.525 724.564 106.552 724.589L483.062 941.746L483.119 941.779L483.166 941.826C483.287 941.947 483.551 942.112 484.005 942.287C484.447 942.457 485.029 942.621 485.742 942.764C487.168 943.049 489.088 943.242 491.406 943.242C493.724 943.242 495.644 943.049 497.07 942.764C497.784 942.621 498.365 942.457 498.808 942.287C499.262 942.112 499.525 941.947 499.646 941.826L499.692 941.78L499.748 941.748L871.517 724.622C872.223 723.504 872.966 721.291 873.534 718.543C874.114 715.74 874.5 712.454 874.5 709.367V274.211C874.5 273.698 874.692 273.219 874.928 272.787C875.161 272.359 875.475 271.914 875.756 271.492C876.342 270.613 876.844 269.749 876.844 268.742C876.844 268.415 876.998 268.073 877.129 267.811C877.2 267.667 877.281 267.519 877.357 267.378C877.436 267.234 877.511 267.094 877.58 266.956C877.722 266.672 877.812 266.441 877.837 266.258C877.859 266.096 877.826 266.025 877.771 265.971L877.706 265.905L877.668 265.82L874.608 258.937L499.75 42.6123L499.693 42.5801L499.646 42.5332C499.525 42.4122 499.262 42.247 498.808 42.0723C498.365 41.9022 497.784 41.7384 497.07 41.5957C495.644 41.3105 493.724 41.1172 491.406 41.1172Z" fill="url(#paint1_linear_500_297)" stroke="url(#paint2_linear_500_297)"/>
<path d="M492.188 683.586C386.719 683.586 300.781 597.648 300.781 492.18C300.781 386.711 386.719 300.773 492.188 300.773C563.281 300.773 625.781 339.836 658.594 398.43L760.156 339.836C707.031 246.867 607.031 183.586 492.188 183.586C321.875 183.586 183.594 321.867 183.594 492.18C183.594 662.492 321.875 800.773 492.188 800.773C606.25 800.773 706.25 738.273 759.375 646.086L658.594 586.711C625.781 644.523 563.281 683.586 492.188 683.586Z" fill="url(#paint3_radial_500_297)"/>
<defs>
<radialGradient id="paint0_radial_500_297" cx="0" cy="0" r="1" gradientUnits="userSpaceOnUse" gradientTransform="translate(778 491.998) rotate(90.3619) scale(237.505 208.489)">
<stop stop-color="white"/>
<stop offset="1"/>
</radialGradient>
<linearGradient id="paint1_linear_500_297" x1="216.5" y1="200.998" x2="811" y2="1290.5" gradientUnits="userSpaceOnUse">
<stop offset="0.192308" stop-color="#5B1CC8"/>
<stop offset="1" stop-color="#300F66"/>
</linearGradient>
<linearGradient id="paint2_linear_500_297" x1="216.5" y1="200.998" x2="811" y2="1290.5" gradientUnits="userSpaceOnUse">
<stop offset="0.192308" stop-color="#5B1CC8"/>
<stop offset="1" stop-color="#300F66"/>
</linearGradient>
<radialGradient id="paint3_radial_500_297" cx="0" cy="0" r="1" gradientUnits="userSpaceOnUse" gradientTransform="translate(485.5 491.998) rotate(86.4534) scale(541.537 475.378)">
<stop offset="0.471154" stop-color="white"/>
<stop offset="0.697115" stop-color="#A4A4A4"/>
</radialGradient>
</defs>
</svg>
