<svg width="1006" height="1006" viewBox="0 0 1006 1006" fill="none" xmlns="http://www.w3.org/2000/svg">
<path d="M627.835 213.795H591.168L629.3 255.176V274.875H550.76V251.809H588.888L550.76 210.428V190.709H627.835V213.795ZM535.188 213.795H498.52L536.652 255.176V274.875H458.108V251.809H496.24L458.108 210.428V190.709H535.188V213.795ZM443.448 214.739H403.88V250.845H443.448V274.875H375.754V190.709H443.448V214.739Z" fill="url(#paint0_linear_390_356)"/>
<path d="M321.836 764.261L281.628 313.297H723.425L683.182 764.186L502.256 814.351L321.836 764.261Z" fill="url(#paint1_linear_390_356)"/>
<path d="M502.533 776.007L648.723 735.475L683.116 350.17H502.533V776.007Z" fill="url(#paint2_linear_390_356)"/>
<path d="M502.528 513.553H575.715L580.775 456.917H502.528V401.607H641.22L639.894 416.445L626.302 568.857H502.528V513.553Z" fill="url(#paint3_linear_390_356)"/>
<path d="M502.861 657.193L502.618 657.263L441.022 640.627L437.079 596.516H381.565L389.317 683.358L502.608 714.807L502.866 714.733L502.861 657.193Z" fill="url(#paint4_linear_390_356)"/>
<path d="M571.019 566.52L564.355 640.59L502.669 657.241V714.785L616.054 683.361L616.888 674.015L626.512 566.52H571.019Z" fill="url(#paint5_linear_390_356)"/>
<path d="M502.722 401.607V456.912H369.126L368.013 444.483L365.496 416.445L364.17 401.607H502.722ZM502.528 513.558V568.867H441.712L440.604 556.438L438.082 528.396L436.756 513.558H502.528Z" fill="url(#paint6_linear_390_356)"/>
<defs>
<linearGradient id="paint0_linear_390_356" x1="502.527" y1="235.975" x2="502.527" y2="292.362" gradientUnits="userSpaceOnUse">
<stop stop-color="white"/>
<stop offset="1" stop-color="#9D9D9D"/>
</linearGradient>
<linearGradient id="paint1_linear_390_356" x1="502.53" y1="169.338" x2="492.277" y2="989.504" gradientUnits="userSpaceOnUse">
<stop offset="0.221154" stop-color="#1882D0"/>
<stop offset="1" stop-color="#093250"/>
</linearGradient>
<linearGradient id="paint2_linear_390_356" x1="594.797" y1="164.208" x2="594.797" y2="963.871" gradientUnits="userSpaceOnUse">
<stop offset="0.326923" stop-color="#33A9DC"/>
<stop offset="1" stop-color="#1B5B76"/>
</linearGradient>
<linearGradient id="paint3_linear_390_356" x1="451.268" y1="482.024" x2="692.192" y2="482.024" gradientUnits="userSpaceOnUse">
<stop offset="0.132862" stop-color="white"/>
<stop offset="1" stop-color="#999999"/>
</linearGradient>
<linearGradient id="paint4_linear_390_356" x1="442.216" y1="596.516" x2="442.216" y2="714.807" gradientUnits="userSpaceOnUse">
<stop offset="0.0432692" stop-color="#EBEBEB"/>
<stop offset="1" stop-color="#858585"/>
</linearGradient>
<linearGradient id="paint5_linear_390_356" x1="461.522" y1="666.563" x2="697.32" y2="661.437" gradientUnits="userSpaceOnUse">
<stop offset="0.0769231" stop-color="white"/>
<stop offset="1" stop-color="#999999"/>
</linearGradient>
<linearGradient id="paint6_linear_390_356" x1="433.446" y1="401.607" x2="430.763" y2="917.738" gradientUnits="userSpaceOnUse">
<stop stop-color="#EBEBEB"/>
<stop offset="1" stop-color="#858585"/>
</linearGradient>
</defs>
</svg>
