<svg width="1000" height="1000" viewBox="0 0 1000 1000" fill="none" xmlns="http://www.w3.org/2000/svg">
<path fill-rule="evenodd" clip-rule="evenodd" d="M156.262 757.027V693.746C156.262 685.152 161.73 678.902 170.324 678.902H172.668C181.262 678.902 186.73 685.934 186.73 693.746V826.559C186.73 858.59 171.105 884.371 142.98 900.777C129.699 908.59 115.637 912.496 100.793 912.496H94.543C62.5117 912.496 36.7305 896.871 20.3242 868.746C12.5117 855.465 8.60547 841.402 8.60547 826.559V820.309C8.60547 788.277 24.2305 762.496 52.3555 746.09C65.6367 738.277 79.6992 734.371 94.543 734.371H100.793C121.887 735.152 140.637 742.965 156.262 757.027ZM38.293 823.434C38.293 846.871 50.0117 864.059 70.3242 875.777C78.918 880.465 87.5117 882.809 96.8867 882.809C119.543 882.809 136.73 871.871 148.449 852.34C153.918 842.965 156.262 833.59 156.262 822.652C156.262 802.34 146.887 786.715 130.48 774.996C120.324 767.965 109.387 764.059 97.668 764.059C72.668 764.059 54.6992 776.559 43.7617 799.215C39.8555 807.027 38.293 815.621 38.293 823.434ZM289.855 735.152H293.762C328.137 735.152 354.699 751.559 371.105 782.027C378.137 793.746 381.262 807.027 381.262 821.09V827.34C381.262 859.371 365.637 885.152 337.512 901.559C324.23 909.371 310.168 913.277 295.324 913.277H289.074C257.043 913.277 231.262 897.652 214.855 869.527C207.043 856.246 203.137 842.184 203.137 827.34V821.09C203.137 789.059 219.543 763.277 246.887 746.871C260.168 738.277 275.012 735.152 289.855 735.152ZM233.605 823.434C233.605 846.09 244.543 862.496 264.074 874.215C273.449 879.684 282.824 882.027 293.762 882.027C316.418 882.027 332.824 870.309 344.543 851.559C350.012 842.184 352.355 832.809 352.355 821.871C352.355 800.777 342.199 784.371 325.012 772.652C315.637 766.402 304.699 763.277 293.762 763.277C268.762 763.277 250.793 775.777 239.855 798.434C235.168 807.027 233.605 815.621 233.605 823.434ZM505.48 767.184C500.793 764.84 492.199 764.059 487.512 764.059C462.512 763.277 444.543 777.34 433.605 799.215C429.699 807.027 428.137 814.84 428.137 823.434C428.137 849.215 441.418 867.184 464.074 878.121C472.668 882.027 482.824 882.809 492.199 882.809C500.012 882.809 511.73 878.121 518.762 874.215L520.324 873.434H526.574C533.605 874.996 538.293 878.902 538.293 886.715V889.84C538.293 907.809 504.699 912.496 492.199 913.277C447.668 916.402 414.074 892.184 401.574 849.215C399.23 842.184 398.449 834.371 398.449 826.559V820.309C398.449 788.277 414.855 762.496 442.199 746.09C455.48 738.277 469.543 734.371 484.387 734.371H490.637C506.262 734.371 521.105 739.059 534.387 747.652L535.168 748.434L535.949 749.215C537.512 751.559 538.293 753.902 538.293 757.027V760.152C538.293 767.965 532.824 771.871 525.793 773.434H523.449C519.543 773.434 509.387 768.746 505.48 767.184ZM602.355 787.496C614.074 775.777 625.793 764.059 637.512 753.121C640.637 749.996 653.137 736.715 657.824 736.715H664.074C671.105 738.277 675.793 742.184 675.793 749.996V753.121C675.793 757.809 670.324 764.059 666.418 767.184L645.324 788.277L609.387 824.996C625.012 840.621 640.637 856.246 655.48 871.871L667.98 885.152C669.543 886.715 671.887 888.277 672.668 890.621C674.23 892.965 675.012 895.309 675.012 897.652V901.559C673.449 908.59 668.762 914.059 661.73 914.059H659.387C654.699 914.059 649.23 908.59 645.324 905.465C638.293 899.215 631.262 892.184 625.012 885.152L602.355 862.496V898.434C602.355 907.027 596.887 913.277 588.293 913.277H585.949C577.355 913.277 571.887 906.246 571.887 898.434V694.527C571.887 685.934 577.355 679.684 585.949 679.684H588.293C596.887 679.684 602.355 685.934 602.355 694.527V787.496ZM974.23 735.934H977.355C985.949 735.934 992.199 742.184 992.199 750.777C992.199 763.277 980.48 766.402 970.324 766.402C957.043 766.402 943.762 774.215 935.168 783.59C923.449 795.309 918.762 809.371 918.762 825.777V897.652C918.762 906.246 913.293 912.496 904.699 912.496H902.355C893.762 912.496 888.293 905.465 888.293 897.652V821.09C888.293 791.402 902.355 767.965 926.574 750.777C940.637 741.402 957.043 735.934 974.23 735.934ZM762.512 878.902C773.449 882.809 785.949 882.027 796.887 880.465C802.355 878.121 817.199 871.871 822.668 872.652H824.23C827.355 874.215 830.48 876.559 832.043 879.684C835.949 887.496 834.387 895.309 826.574 899.996L824.23 901.559C796.105 917.965 765.637 915.621 737.512 899.996C724.23 892.965 714.074 882.027 706.262 868.746L704.699 865.621C686.73 834.371 689.074 800.777 709.387 771.09C716.418 760.934 725.793 753.121 736.731 746.871L740.637 744.527C767.199 728.902 796.105 730.465 823.449 743.746C838.293 750.777 850.012 761.715 858.605 775.777L860.168 778.121C866.418 788.277 858.605 797.652 850.793 803.902C841.418 810.934 832.043 819.527 823.449 827.34C802.355 844.527 782.043 861.715 762.512 878.902ZM736.731 860.934L803.137 803.902C810.949 797.652 818.762 790.621 826.574 783.59C820.324 775.777 810.168 770.309 802.355 767.184C785.168 760.934 767.981 762.496 752.356 771.871C732.043 783.59 722.668 803.121 723.449 826.559C723.449 835.934 726.574 844.527 731.262 853.121C732.824 856.246 734.387 858.59 736.731 860.934ZM575.793 263.277H664.074V353.121H708.605C728.918 353.121 750.012 349.215 769.543 342.965C778.918 339.84 789.856 335.152 799.231 329.684C786.731 313.277 780.48 292.965 778.918 272.652C776.574 245.309 782.043 209.371 800.793 188.277L810.168 177.34L821.105 185.934C849.23 208.59 871.887 239.059 876.574 274.996C910.168 264.84 949.231 267.184 978.918 284.371L990.637 291.402L984.387 303.902C959.387 352.34 907.043 367.965 856.262 364.84C779.699 554.684 614.074 644.527 412.512 644.527C308.605 644.527 213.293 605.465 158.605 513.277L157.824 511.715L150.012 495.309C131.262 454.684 125.793 410.152 129.699 365.621L131.262 352.34H206.262V263.277H294.543V174.996H470.324V86.7148H575.793V263.277Z" fill="#3A4D54"/>
<path d="M860.93 296.088C867.18 249.994 832.805 214.057 810.93 196.869C786.711 224.994 782.805 299.994 821.086 331.244C799.211 349.994 754.68 367.963 707.805 367.963H143.742C139.055 416.4 147.649 460.932 167.18 499.213L173.43 510.932C177.336 517.963 182.024 524.213 186.711 531.244C210.149 532.807 231.242 533.588 250.774 532.807C289.055 532.025 320.305 527.338 344.524 519.525C348.43 517.963 351.555 520.307 353.117 523.432C354.68 527.338 352.336 530.463 349.211 532.025C346.086 532.807 342.961 534.369 339.055 535.15C320.305 540.619 299.992 543.744 274.211 545.307H269.524C259.367 546.088 248.43 546.088 236.711 546.088C224.211 546.088 212.492 546.088 198.43 545.307C245.305 598.432 318.742 629.682 410.93 629.682C606.242 629.682 771.867 542.963 844.524 349.213C896.867 354.682 946.867 341.4 969.524 296.869C934.367 276.557 887.492 282.807 860.93 296.088Z" fill="#00AADA"/>
<path d="M860.936 296.088C867.186 249.994 832.811 214.057 810.936 196.869C786.717 224.994 782.811 299.994 821.092 331.244C799.217 349.994 754.686 367.963 707.811 367.963H176.561C174.217 442.182 201.561 498.432 250.78 532.025C289.061 531.244 320.311 526.557 344.53 518.744C348.436 517.182 351.561 519.525 353.124 522.65C354.686 526.557 352.342 529.682 349.217 531.244C346.092 532.025 342.967 533.588 339.061 534.369C320.311 539.838 298.436 543.744 272.655 545.307L271.874 544.525C338.28 578.9 434.374 578.119 545.311 535.932C668.749 488.275 784.374 397.65 864.842 294.525C863.28 295.307 862.499 296.088 860.936 296.088Z" fill="#28B8EB"/>
<path d="M144.531 426.559C147.656 452.34 155.469 476.559 167.187 499.215L173.438 510.934C177.344 517.965 182.031 524.215 186.719 531.246C210.156 532.809 231.25 533.59 250.781 532.809C289.062 532.027 320.312 527.34 344.531 519.527C348.437 517.965 351.563 520.309 353.125 523.434C354.688 527.34 352.344 530.465 349.219 532.027C346.094 532.809 342.969 534.371 339.063 535.152C320.313 540.621 298.438 544.527 272.656 546.09H269.531C259.375 546.871 248.437 546.871 237.5 546.871C225 546.871 212.5 546.871 199.219 546.09C246.094 599.215 320.312 630.465 412.5 630.465C579.687 630.465 725 567.184 809.375 427.34H144.531V426.559Z" fill="#028BB8"/>
<path d="M182.039 426.559C192.195 471.871 215.633 507.809 250.789 532.027C289.07 531.246 320.32 526.559 344.539 518.746C348.445 517.184 351.57 519.527 353.133 522.652C354.695 526.559 352.352 529.684 349.227 531.246C346.102 532.027 342.977 533.59 339.07 534.371C320.32 539.84 298.445 543.746 271.883 545.309C338.289 579.684 434.383 578.902 544.539 536.715C610.945 510.934 675.789 472.652 733.602 426.559H182.039Z" fill="#019BC6"/>
<path fill-rule="evenodd" clip-rule="evenodd" d="M220.305 277.35H296.867V353.912H220.305V277.35ZM226.555 284.381H232.805V347.662H226.555V284.381ZM238.273 284.381H244.523V347.662H238.273V284.381ZM249.992 284.381H256.242V347.662H249.992V284.381ZM260.93 284.381H267.18V347.662H260.93V284.381ZM272.648 284.381H278.898V347.662H272.648V284.381ZM284.367 284.381H290.617V347.662H284.367V284.381ZM308.586 189.85H385.148V265.631H308.586V189.85ZM314.836 196.1H321.086V259.381H314.836V196.1ZM326.555 196.1H332.805V259.381H326.555V196.1ZM337.492 196.1H343.742V259.381H337.492V196.1ZM349.211 196.1H355.461V259.381H349.211V196.1ZM360.93 196.1H367.18V259.381H360.93V196.1ZM372.648 196.1H378.898V259.381H372.648V196.1Z" fill="#00ACD3"/>
<path fill-rule="evenodd" clip-rule="evenodd" d="M308.594 277.344H385.156V353.906H308.594V277.344ZM314.844 284.375H321.094V347.656H314.844V284.375ZM326.562 284.375H332.812V347.656H326.562V284.375ZM337.5 284.375H343.75V347.656H337.5V284.375ZM349.219 284.375H355.469V347.656H349.219V284.375ZM360.938 284.375H367.188V347.656H360.938V284.375ZM372.656 284.375H378.906V347.656H372.656V284.375Z" fill="#23C2EE"/>
<path fill-rule="evenodd" clip-rule="evenodd" d="M396.883 277.344H473.445V353.906H396.883V277.344ZM403.133 284.375H409.383V347.656H403.133V284.375ZM414.07 284.375H420.32V347.656H414.07V284.375ZM425.789 284.375H432.039V347.656H425.789V284.375ZM437.508 284.375H443.758V347.656H437.508V284.375ZM449.227 284.375H455.477V347.656H449.227V284.375ZM460.164 284.375H466.414V347.656H460.164V284.375Z" fill="#00ACD3"/>
<path fill-rule="evenodd" clip-rule="evenodd" d="M396.883 189.85H473.445V265.631H396.883V189.85ZM403.133 196.1H409.383V259.381H403.133V196.1ZM414.07 196.1H420.32V259.381H414.07V196.1ZM425.789 196.1H432.039V259.381H425.789V196.1ZM437.508 196.1H443.758V259.381H437.508V196.1ZM449.227 196.1H455.477V259.381H449.227V196.1ZM460.164 196.1H466.414V259.381H460.164V196.1ZM484.383 277.35H560.945V353.912H484.383V277.35ZM491.414 284.381H497.664V347.662H491.414V284.381ZM502.352 284.381H508.602V347.662H502.352V284.381ZM514.07 284.381H520.32V347.662H514.07V284.381ZM525.789 284.381H532.039V347.662H525.789V284.381ZM536.727 284.381H542.977V347.662H536.727V284.381ZM548.445 284.381H554.695V347.662H548.445V284.381Z" fill="#23C2EE"/>
<path fill-rule="evenodd" clip-rule="evenodd" d="M484.375 189.85H560.938V265.631H484.375V189.85ZM491.406 196.1H497.656V259.381H491.406V196.1ZM502.344 196.1H508.594V259.381H502.344V196.1ZM514.063 196.1H520.312V259.381H514.063V196.1ZM525.781 196.1H532.031V259.381H525.781V196.1ZM536.719 196.1H542.969V259.381H536.719V196.1ZM548.437 196.1H554.688V259.381H548.437V196.1Z" fill="#00ACD3"/>
<path fill-rule="evenodd" clip-rule="evenodd" d="M484.375 101.562H560.938V178.125H484.375V101.562ZM491.406 107.813H497.656V171.875H491.406V107.813ZM502.344 107.813H508.594V171.875H502.344V107.813ZM514.063 107.813H520.312V171.875H514.063V107.813ZM525.781 107.813H532.031V171.875H525.781V107.813ZM536.719 107.813H542.969V171.875H536.719V107.813ZM548.437 107.813H554.688V171.875H548.437V107.813Z" fill="#23C2EE"/>
<path fill-rule="evenodd" clip-rule="evenodd" d="M572.664 277.344H649.227V353.906H572.664V277.344ZM578.914 284.375H585.164V347.656H578.914V284.375ZM590.633 284.375H596.883V347.656H590.633V284.375ZM602.352 284.375H608.602V347.656H602.352V284.375ZM613.289 284.375H619.539V347.656H613.289V284.375ZM625.008 284.375H631.258V347.656H625.008V284.375ZM636.727 284.375H642.977V347.656H636.727V284.375Z" fill="#00ACD3"/>
<path fill-rule="evenodd" clip-rule="evenodd" d="M379.676 478.119C391.395 478.119 400.77 487.494 400.77 499.213C400.77 510.932 391.395 520.307 379.676 520.307C367.957 520.307 358.582 510.932 358.582 499.213C359.363 487.494 368.738 478.119 379.676 478.119Z" fill="#D4EEF1"/>
<path fill-rule="evenodd" clip-rule="evenodd" d="M379.687 483.598C381.25 483.598 383.594 483.598 385.156 484.379C383.594 485.16 382.031 487.504 382.031 489.848C382.031 492.973 385.156 496.098 388.281 496.098C390.625 496.098 392.969 494.535 393.75 492.973C394.531 494.535 394.531 496.879 394.531 498.441C394.531 507.035 387.5 513.285 379.687 513.285C371.094 513.285 364.844 506.254 364.844 498.441C364.844 490.629 371.875 483.598 379.687 483.598ZM7.8125 434.379H986.719C965.625 428.91 919.531 421.879 926.562 393.754C887.5 438.285 794.531 425.004 770.312 403.129C743.75 441.41 590.625 426.566 580.469 396.879C547.656 435.941 445.312 435.941 412.5 396.879C401.562 426.566 248.437 441.41 222.656 403.129C199.219 425.004 105.469 438.285 66.4062 393.754C75 421.098 28.9063 428.91 7.8125 434.379Z" fill="#3A4D54"/>
<path d="M435.93 629.691C383.586 604.691 355.461 571.098 339.055 534.379C319.523 539.848 296.086 543.754 269.523 545.316C259.367 546.098 248.43 546.098 237.492 546.098C224.211 546.098 210.93 546.098 196.867 545.316C244.523 592.973 303.898 629.691 412.492 630.473C420.305 629.691 428.117 629.691 435.93 629.691Z" fill="#BFDBE0"/>
<path d="M358.594 567.973C351.563 557.816 344.531 546.098 339.063 534.379C319.531 539.848 296.094 543.754 269.531 545.316C288.281 555.473 314.844 564.848 358.594 567.973Z" fill="#D4EEF1"/>
</svg>
