<svg width="1000" height="1000" viewBox="0 0 1000 1000" fill="none" xmlns="http://www.w3.org/2000/svg">
<g clip-path="url(#clip0_497_279)">
<path d="M478.086 0H516.781C617.703 4.17969 717.469 38.2031 798.367 99.0312C875 155.977 934.875 235.258 968.109 324.859C987.18 374.758 996.734 427.828 1000 481.047V513.945C996.766 602.172 971.375 689.883 923.984 764.586C870.852 849.703 791.781 918.727 699.555 958.555C639.178 984.735 574.251 998.816 508.453 1000H491.703C400.023 998.508 308.813 971.406 231.57 921.938C144.102 866.367 74.4297 782.992 36.0391 686.648C14.7734 634.297 3.44531 578.281 0 521.969V483.242C3.9375 370.82 46.5078 259.734 120.391 174.68C181 103.984 261.719 50.625 350.68 22.9453C391.969 9.92187 434.969 3.20312 478.086 0ZM196.805 293.148C196.57 388.094 196.719 483.031 196.719 577.945C207.891 578.031 219.062 578.031 230.258 578.031C229.672 496.523 231.047 415.039 229.43 333.555C233.18 340.641 236.602 347.93 240.875 354.703C289.336 428.984 336.758 503.906 385.227 578.125C398.805 577.945 412.383 577.945 425.961 578.156C425.937 483.156 425.906 388.156 425.992 293.156C414.925 293.049 403.857 293.017 392.789 293.063C393.375 373.688 391.727 454.312 393.766 534.852C342.93 453.977 291.414 373.562 239.898 293.094C225.534 293.005 211.169 293.023 196.805 293.148ZM500.273 293.063C499.266 388.063 500.242 483.062 499.906 578.031C550.445 577.914 600.984 578.219 651.547 577.875C651.365 567.583 651.428 557.289 651.734 547C612.578 546.875 573.398 547.055 534.211 546.844C533.633 513.953 534.18 481.016 533.898 448.117C568.234 447.508 602.57 448.211 636.867 447.75C636.781 437.773 636.781 427.797 636.719 417.812C602.445 418.914 568.18 417.391 533.875 417.906C533.969 386.477 534.031 355.016 534.031 323.547C570.742 323.547 607.453 323.391 644.133 323.641C644.07 313.477 644.133 303.281 644.258 293.125C596.25 293 548.242 293.063 500.273 293.063ZM676.852 293.484C676.883 303.375 676.883 313.234 676.914 323.094C704.164 322.781 731.383 323.945 758.633 323.367C758.453 408.234 758.664 493.039 758.547 577.852C769.953 578.187 781.438 578.125 792.844 577.148C791.906 530.336 793.766 483.492 791.625 436.703C792.148 415.617 791.078 394.562 792.539 373.5C793.367 356.781 790.375 340.086 792.266 323.367C819.734 323.734 847.227 323.484 874.687 323.484C874.563 313.501 874.758 303.517 875.273 293.547C809.109 292.727 742.953 292.813 676.852 293.484ZM105.859 539.797C90.4141 546.906 89.4063 571.227 104.695 579.07C118.133 588.289 138.328 576.172 137.719 560.242C138.758 544.586 119.828 531.43 105.859 539.797ZM334.219 659.242C300.805 686.344 301.203 746.703 338.125 770.57C358.969 783.813 385.797 781.07 407.828 772.25C407.922 767.398 408.039 762.57 408.219 757.719C387.352 768.617 358.141 770.844 340.445 752.953C317.281 727.664 322.5 680.539 353.047 663.297C370.32 654.203 391.383 656.859 408.406 665.164C408.352 660.008 408.375 654.852 408.406 649.695C384.211 641.109 354.328 641.57 334.219 659.242ZM468.648 680.414C453.883 682.133 439.289 689.945 432.453 703.586C422.664 723.086 423.789 749.422 439.203 765.773C455.102 783.719 485.648 783.898 503.109 768.094C522.055 750.063 524.195 717.563 509.023 696.5C500.055 683.773 483.453 679.438 468.648 680.414ZM608.391 701.688C595.422 724.211 597.984 758.328 620.875 773.648C637.93 783.18 659.414 780.148 676.141 771.242C676.109 766.422 676.172 761.594 676.383 756.805C663.203 765.164 645.625 771.305 630.977 762.875C620.75 757.234 617.664 745.242 616.023 734.555C638.484 734.25 660.914 733.914 683.406 733.977C682.82 719.695 682.484 703.555 672.078 692.508C654.898 673.523 620.172 679.563 608.391 701.688ZM542.656 683.438V777.25C547.75 777.25 552.906 777.25 558.07 777.281C558.25 760.133 557.758 742.953 558.25 725.766C558.375 715.844 562.367 705.781 569.844 699.094C576.102 694.367 584.555 696.984 591.727 697.172C591.633 692.203 591.57 687.25 591.547 682.312C577.539 679.203 565.484 687.406 558.406 698.852C558.25 693.906 558.094 688.961 558.008 684.055C552.883 683.867 547.75 683.656 542.656 683.438Z" fill="url(#paint0_linear_497_279)"/>
<path d="M459.033 697.057C471.939 690.768 490.463 693.854 497.666 707.213C505.869 721.955 505.689 741.455 496.595 755.737C484.72 773.596 453.416 769.69 445.634 749.94C437.759 732.299 440.814 707.104 459.033 697.057ZM617.486 721.987C617.845 709.69 626.423 697.479 638.783 694.799C646.408 693.518 655.166 694.854 660.447 700.994C665.697 706.572 666.798 714.385 668.103 721.619C651.228 721.713 634.361 721.377 617.486 721.987Z" fill="url(#paint1_linear_497_279)"/>
</g>
<defs>
<linearGradient id="paint0_linear_497_279" x1="227" y1="110.5" x2="868" y2="1097" gradientUnits="userSpaceOnUse">
<stop stop-color="#623697"/>
<stop offset="1" stop-color="#201231"/>
</linearGradient>
<linearGradient id="paint1_linear_497_279" x1="170.5" y1="309.502" x2="31.3266" y2="875.993" gradientUnits="userSpaceOnUse">
<stop stop-color="#623697"/>
<stop offset="1" stop-color="#201231"/>
</linearGradient>
<clipPath id="clip0_497_279">
<rect width="1000" height="1000" fill="white"/>
</clipPath>
</defs>
</svg>
