<svg width="1008" height="1008" viewBox="0 0 1008 1008" fill="none" xmlns="http://www.w3.org/2000/svg">
<path d="M503.904 504.201C503.904 438.162 557.44 384.625 623.481 384.625C689.52 384.625 743.057 438.162 743.057 504.201C743.057 570.242 689.52 623.778 623.481 623.778C557.44 623.778 503.904 570.242 503.904 504.201Z" fill="url(#paint0_radial_529_336)"/>
<path d="M264.752 743.352C264.752 677.313 318.288 623.775 384.328 623.775H503.905V743.352C503.905 809.393 450.369 862.928 384.328 862.928C318.288 862.928 264.752 809.393 264.752 743.352Z" fill="url(#paint1_linear_529_336)"/>
<path d="M503.904 145.469V384.621H623.481C689.521 384.621 743.057 331.085 743.057 265.045C743.057 199.005 689.521 145.469 623.481 145.469H503.904Z" fill="url(#paint2_linear_529_336)"/>
<path d="M264.752 265.045C264.752 331.085 318.288 384.621 384.328 384.621H503.905V145.469H384.328C318.288 145.469 264.752 199.005 264.752 265.045Z" fill="url(#paint3_linear_529_336)"/>
<path d="M264.752 504.201C264.752 570.242 318.288 623.778 384.328 623.778H503.905V384.625H384.328C318.288 384.625 264.752 438.162 264.752 504.201Z" fill="url(#paint4_linear_529_336)"/>
<defs>
<radialGradient id="paint0_radial_529_336" cx="0" cy="0" r="1" gradientUnits="userSpaceOnUse" gradientTransform="translate(623.481 504.201) rotate(90) scale(119.576)">
<stop offset="0.379808" stop-color="#1ABCFE"/>
<stop offset="1" stop-color="#107198"/>
</radialGradient>
<linearGradient id="paint1_linear_529_336" x1="383.343" y1="656.243" x2="384.328" y2="862.928" gradientUnits="userSpaceOnUse">
<stop stop-color="#0ACF83"/>
<stop offset="1" stop-color="#056942"/>
</linearGradient>
<linearGradient id="paint2_linear_529_336" x1="623.481" y1="145.469" x2="623.481" y2="384.621" gradientUnits="userSpaceOnUse">
<stop stop-color="#FF796A"/>
<stop offset="0.721154" stop-color="#9F473D"/>
</linearGradient>
<linearGradient id="paint3_linear_529_336" x1="384.328" y1="145.469" x2="383.343" y2="383.879" gradientUnits="userSpaceOnUse">
<stop stop-color="#F24E1E"/>
<stop offset="1" stop-color="#6B230D"/>
</linearGradient>
<linearGradient id="paint4_linear_529_336" x1="383.343" y1="421.712" x2="384.328" y2="623.778" gradientUnits="userSpaceOnUse">
<stop stop-color="#A259FF"/>
<stop offset="1" stop-color="#613599"/>
</linearGradient>
</defs>
</svg>
