<svg width="1000" height="1000" viewBox="0 0 1000 1000" fill="none" xmlns="http://www.w3.org/2000/svg">
<path d="M778.424 681.663C735.339 680.71 696.034 668.405 662.893 639.991C634.956 615.85 617.44 585.069 611.76 548.608C603.237 495.108 617.909 447.757 650.112 405.624C684.674 360.163 726.339 336.491 782.69 326.546C830.979 318.03 876.44 322.764 917.628 350.694C955.034 376.264 978.229 410.827 984.385 456.28C992.432 520.202 973.971 572.288 929.932 616.796C898.682 648.514 860.331 668.405 816.299 677.397C803.518 679.764 790.729 680.241 778.424 681.663ZM891.112 490.374C890.643 484.218 890.643 479.483 889.69 474.749C881.174 427.874 838.081 401.358 793.104 411.78C749.065 421.718 720.659 449.655 710.245 494.163C701.721 531.093 719.714 568.499 753.799 583.647C779.846 595.014 805.885 593.593 830.979 580.811C868.385 561.397 888.745 531.093 891.112 490.374Z" fill="url(#paint0_radial_499_285)"/>
<path fill-rule="evenodd" clip-rule="evenodd" d="M87.1552 428.358C85.2568 428.358 84.7881 427.405 85.7334 425.991L95.6787 413.202C96.6162 411.78 98.9912 410.834 100.882 410.834H269.921C271.819 410.834 272.288 412.256 271.343 413.678L263.296 425.991C262.351 427.405 259.983 428.827 258.561 428.827L87.1552 428.358ZM15.6552 471.912C13.7646 471.912 13.2881 470.975 14.2334 469.545L24.1787 456.764C25.124 455.342 27.4912 454.397 29.3896 454.397H245.296C247.186 454.397 248.14 455.819 247.663 457.241L243.874 468.6C243.405 470.498 241.507 471.444 239.616 471.444L15.6552 471.912ZM130.233 515.475C128.343 515.475 127.874 514.053 128.819 512.631L135.444 500.795C136.397 499.373 138.288 497.959 140.186 497.959H234.874C236.772 497.959 237.718 499.373 237.718 501.272L236.78 512.631C236.78 514.53 234.882 515.952 233.46 515.952L130.233 515.475ZM621.718 419.834C591.882 427.412 571.522 433.092 542.171 440.662C535.062 442.561 534.593 443.03 528.437 435.928C521.335 427.881 516.124 422.67 506.186 417.936C476.351 403.264 447.468 407.522 420.483 425.045C388.288 445.873 371.718 476.647 372.186 514.998C372.655 552.881 398.702 584.131 436.108 589.342C468.304 593.6 495.296 582.233 516.601 558.092C520.858 552.881 524.647 547.202 529.382 540.569H437.999C428.061 540.569 425.694 534.412 429.007 526.366C435.163 511.686 446.522 487.069 453.147 474.756C454.577 471.912 457.89 467.178 464.991 467.178H637.335C636.397 479.967 636.397 492.748 634.499 505.537C629.288 539.623 616.507 570.873 595.671 598.334C561.577 643.319 517.077 671.248 460.726 678.827C414.327 684.983 371.241 675.983 333.366 647.577C298.327 621.061 278.444 586.022 273.233 542.467C267.077 490.858 282.226 444.452 313.476 403.733C347.093 359.702 391.601 331.764 446.054 321.819C490.561 313.772 533.171 318.983 571.522 345.022C596.616 361.592 614.608 384.319 626.444 411.78C629.288 416.045 627.397 418.412 621.71 419.827L621.718 419.834Z" fill="url(#paint1_linear_499_285)"/>
<defs>
<radialGradient id="paint0_radial_499_285" cx="0" cy="0" r="1" gradientUnits="userSpaceOnUse" gradientTransform="translate(798 502) rotate(48.5763) scale(260.723 288.232)">
<stop offset="0.433269" stop-color="#00ACD7"/>
<stop offset="0.966346" stop-color="#55749C"/>
</radialGradient>
<linearGradient id="paint1_linear_499_285" x1="494" y1="500" x2="-68" y2="500" gradientUnits="userSpaceOnUse">
<stop stop-color="#00ACD7"/>
<stop offset="1" stop-color="#013C64"/>
</linearGradient>
</defs>
</svg>
