<svg width="1008" height="1008" viewBox="0 0 1008 1008" fill="none" xmlns="http://www.w3.org/2000/svg">
<path d="M737.83 656.483C701.607 655.681 668.563 645.337 640.701 621.449C617.213 601.153 602.488 575.275 597.713 544.622C590.547 499.644 602.882 459.835 629.956 424.413C659.013 386.193 694.04 366.292 741.416 357.931C782.013 350.772 820.233 354.752 854.859 378.233C886.307 399.73 905.808 428.787 910.984 467C917.749 520.74 902.228 564.53 865.204 601.948C838.932 628.614 806.689 645.337 769.672 652.897C758.926 654.887 748.174 655.287 737.83 656.483ZM832.567 495.663C832.173 490.488 832.173 486.508 831.372 482.527C824.213 443.119 787.983 420.827 750.171 429.589C713.147 437.943 689.265 461.431 680.51 498.849C673.344 529.896 688.47 561.344 717.127 574.08C739.025 583.636 760.916 582.441 782.013 571.695C813.461 555.374 830.577 529.896 832.567 495.663Z" fill="url(#paint0_radial_499_285)"/>
<path fill-rule="evenodd" clip-rule="evenodd" d="M156.672 443.523C155.076 443.523 154.681 442.722 155.476 441.533L163.837 430.781C164.625 429.586 166.622 428.791 168.212 428.791H310.325C311.921 428.791 312.315 429.987 311.52 431.182L304.755 441.533C303.961 442.722 301.97 443.918 300.775 443.918L156.672 443.523ZM96.5605 480.141C94.9711 480.141 94.5704 479.352 95.3651 478.15L103.726 467.405C104.521 466.21 106.511 465.415 108.107 465.415H289.622C291.212 465.415 292.013 466.61 291.613 467.806L288.427 477.356C288.033 478.952 286.437 479.746 284.848 479.746L96.5605 480.141ZM192.888 516.764C191.298 516.764 190.904 515.569 191.699 514.373L197.269 504.423C198.07 503.227 199.66 502.038 201.256 502.038H280.861C282.457 502.038 283.251 503.227 283.251 504.823L282.463 514.373C282.463 515.969 280.867 517.165 279.672 517.165L192.888 516.764ZM606.085 436.358C581.002 442.729 563.886 447.504 539.209 453.868C533.232 455.464 532.838 455.858 527.663 449.888C521.692 443.123 517.311 438.742 508.957 434.762C483.873 422.427 459.591 426.006 436.905 440.739C409.838 458.249 395.907 484.121 396.301 516.363C396.695 548.212 418.593 574.484 450.041 578.865C477.108 582.445 499.801 572.888 517.712 552.593C521.292 548.212 524.477 543.437 528.457 537.861H451.631C443.276 537.861 441.286 532.685 444.071 525.92C449.246 513.579 458.796 492.883 464.366 482.531C465.568 480.141 468.353 476.16 474.323 476.16H619.215C618.427 486.912 618.427 497.658 616.831 508.41C612.45 537.066 601.705 563.338 584.188 586.425C555.524 624.244 518.113 647.725 470.737 654.096C431.729 659.272 395.506 651.705 363.664 627.824C334.207 605.532 317.491 576.074 313.11 539.457C307.934 496.068 320.67 457.054 346.942 422.821C375.204 385.803 412.623 362.316 458.402 353.955C495.821 347.19 531.643 351.57 563.886 373.462C584.982 387.393 600.108 406.499 610.059 429.586C612.45 433.172 610.86 435.162 606.079 436.351L606.085 436.358Z" fill="url(#paint1_linear_499_285)"/>
<defs>
<radialGradient id="paint0_radial_499_285" cx="0" cy="0" r="1" gradientUnits="userSpaceOnUse" gradientTransform="translate(754.287 505.438) rotate(48.5763) scale(219.193 242.321)">
<stop offset="0.433269" stop-color="#00ACD7"/>
<stop offset="0.966346" stop-color="#55749C"/>
</radialGradient>
<linearGradient id="paint1_linear_499_285" x1="498.711" y1="503.754" x2="26.2304" y2="503.754" gradientUnits="userSpaceOnUse">
<stop stop-color="#00ACD7"/>
<stop offset="1" stop-color="#013C64"/>
</linearGradient>
</defs>
</svg>
