<svg width="1006" height="1006" viewBox="0 0 1006 1006" fill="none" xmlns="http://www.w3.org/2000/svg">
<g clip-path="url(#clip0_589_260)">
<path d="M400.385 674.6C400.385 674.6 371.596 692.108 420.398 697.117C479.147 704.607 510.442 703.367 575.464 690.868C588.532 698.871 602.353 705.573 616.729 710.88C470.44 773.422 285.32 707.135 400.385 674.6ZM381.66 593.311C381.66 593.311 350.39 617.068 399.168 622.1C462.95 628.35 512.969 629.59 599.292 612.106C607.687 620.62 617.965 627.042 629.298 630.854C452.956 683.378 255.36 635.84 381.66 593.311ZM726.832 735.855C726.832 735.855 748.085 753.362 703.075 767.125C619.281 792.17 351.654 799.66 276.613 767.125C250.351 755.89 300.37 739.623 316.404 737.118C332.671 733.373 341.448 733.373 341.448 733.373C312.659 713.361 150.102 774.639 258.918 792.123C557.816 840.902 804.19 770.87 726.645 735.855H726.832ZM413.914 508.252C413.914 508.252 277.596 540.787 365.136 552.022C402.656 557.031 476.432 555.767 545.223 550.781C601.492 545.772 657.807 535.801 657.807 535.801C657.807 535.801 637.795 544.555 624.032 553.309C485.233 589.589 218.823 573.322 295.127 535.801C360.15 504.531 413.938 508.299 413.938 508.299L413.914 508.252ZM657.807 644.57C797.87 572.011 732.848 502.026 687.814 510.757C676.579 513.261 671.547 515.766 671.547 515.766C671.547 515.766 675.292 508.276 684.046 505.771C772.849 474.5 842.881 599.56 655.256 648.315C655.256 648.315 656.497 647.075 657.76 644.57H657.807ZM427.724 842.166C562.778 850.92 769.151 837.157 774.136 773.351C774.136 773.351 764.142 798.396 662.84 817.121C547.775 838.374 405.207 835.846 321.413 822.13C321.413 822.13 338.921 837.133 427.724 842.166Z" fill="url(#paint0_linear_589_260)"/>
<path d="M572.994 95.5508C572.994 95.5508 650.539 174.336 499.217 293.146C377.903 389.44 471.715 444.468 499.217 507.009C427.922 443.227 376.662 386.935 411.678 334.435C462.938 256.867 604.265 219.58 572.994 95.5508ZM533.203 454.486C569.483 495.751 523.209 533.271 523.209 533.271C523.209 533.271 615.757 485.756 573.228 426.96C534.467 370.691 504.413 343.165 667.017 249.377C667.017 249.377 410.648 313.159 533.203 454.486Z" fill="url(#paint1_linear_589_260)"/>
</g>
<defs>
<linearGradient id="paint0_linear_589_260" x1="498.359" y1="578.027" x2="498.359" y2="1002.03" gradientUnits="userSpaceOnUse">
<stop stop-color="#4E7896"/>
<stop offset="1" stop-color="#192630"/>
</linearGradient>
<linearGradient id="paint1_linear_589_260" x1="533.359" y1="199.527" x2="533.359" y2="482.027" gradientUnits="userSpaceOnUse">
<stop stop-color="#F58219"/>
<stop offset="1" stop-color="#8F4C0F"/>
</linearGradient>
<clipPath id="clip0_589_260">
<rect width="749" height="749" fill="white" transform="translate(128.359 95.5273)"/>
</clipPath>
</defs>
</svg>
