<svg width="1006" height="1006" viewBox="0 0 1006 1006" fill="none" xmlns="http://www.w3.org/2000/svg">
<path d="M502.033 413.305H728.367C790.867 413.305 841.533 463.971 841.533 526.471V715.082C841.533 777.583 790.867 828.249 728.367 828.249C665.866 828.249 615.2 777.583 615.2 715.082V526.471C615.2 463.971 564.533 413.305 502.033 413.305Z" fill="url(#paint0_radial_541_392)"/>
<path d="M237.977 488.751C237.977 426.251 288.644 375.584 351.144 375.584H502.033C564.533 375.584 615.199 426.251 615.199 488.751V715.084C615.199 777.584 665.866 828.251 728.366 828.251L426.586 828.249C322.42 828.249 237.977 743.806 237.977 639.638V488.751Z" fill="url(#paint1_radial_541_392)"/>
<path d="M237.977 488.751C237.977 426.251 288.644 375.584 351.144 375.584H502.033C564.533 375.584 615.199 426.251 615.199 488.751V715.084C615.199 777.584 665.866 828.251 728.366 828.251L426.586 828.249C322.42 828.249 237.977 743.806 237.977 639.638V488.751Z" fill="url(#paint2_linear_541_392)" fill-opacity="0.7"/>
<path d="M237.977 488.751C237.977 426.251 288.644 375.584 351.144 375.584H502.033C564.533 375.584 615.199 426.251 615.199 488.751V715.084C615.199 777.584 665.866 828.251 728.366 828.251L426.586 828.249C322.42 828.249 237.977 743.806 237.977 639.638V488.751Z" fill="url(#paint3_radial_541_392)" fill-opacity="0.7"/>
<path d="M709.507 375.582C761.59 375.582 803.812 333.359 803.812 281.276C803.812 229.193 761.59 186.971 709.507 186.971C657.424 186.971 615.201 229.193 615.201 281.276C615.201 333.359 657.424 375.582 709.507 375.582Z" fill="url(#paint4_radial_541_392)"/>
<path d="M709.507 375.582C761.59 375.582 803.812 333.359 803.812 281.276C803.812 229.193 761.59 186.971 709.507 186.971C657.424 186.971 615.201 229.193 615.201 281.276C615.201 333.359 657.424 375.582 709.507 375.582Z" fill="url(#paint5_radial_541_392)" fill-opacity="0.46"/>
<path d="M709.507 375.582C761.59 375.582 803.812 333.359 803.812 281.276C803.812 229.193 761.59 186.971 709.507 186.971C657.424 186.971 615.201 229.193 615.201 281.276C615.201 333.359 657.424 375.582 709.507 375.582Z" fill="url(#paint6_radial_541_392)" fill-opacity="0.4"/>
<path d="M426.589 337.861C489.089 337.861 539.755 287.194 539.755 224.694C539.755 162.194 489.089 111.527 426.589 111.527C364.089 111.527 313.422 162.194 313.422 224.694C313.422 287.194 364.089 337.861 426.589 337.861Z" fill="url(#paint7_radial_541_392)"/>
<path d="M426.589 337.861C489.089 337.861 539.755 287.194 539.755 224.694C539.755 162.194 489.089 111.527 426.589 111.527C364.089 111.527 313.422 162.194 313.422 224.694C313.422 287.194 364.089 337.861 426.589 337.861Z" fill="url(#paint8_radial_541_392)" fill-opacity="0.6"/>
<path d="M426.589 337.861C489.089 337.861 539.755 287.194 539.755 224.694C539.755 162.194 489.089 111.527 426.589 111.527C364.089 111.527 313.422 162.194 313.422 224.694C313.422 287.194 364.089 337.861 426.589 337.861Z" fill="url(#paint9_radial_541_392)" fill-opacity="0.5"/>
<path d="M403.012 469.889H223.832C189.978 469.889 162.533 497.333 162.533 531.187V710.368C162.533 744.222 189.978 771.666 223.832 771.666H403.012C436.867 771.666 464.311 744.222 464.311 710.368V531.187C464.311 497.333 436.867 469.889 403.012 469.889Z" fill="url(#paint10_radial_541_392)"/>
<path d="M403.012 469.889H223.832C189.978 469.889 162.533 497.333 162.533 531.187V710.368C162.533 744.222 189.978 771.666 223.832 771.666H403.012C436.867 771.666 464.311 744.222 464.311 710.368V531.187C464.311 497.333 436.867 469.889 403.012 469.889Z" fill="url(#paint11_radial_541_392)" fill-opacity="0.7"/>
<path d="M379.051 566.165H332.895V706.982H293.951V566.165H247.795V534.539H379.051V566.165Z" fill="white"/>
<defs>
<radialGradient id="paint0_radial_541_392" cx="0" cy="0" r="1" gradientUnits="userSpaceOnUse" gradientTransform="translate(837.701 454.307) scale(254.218 627.498)">
<stop stop-color="#A98AFF"/>
<stop offset="0.14" stop-color="#8C75FF"/>
<stop offset="0.565" stop-color="#5F50E2"/>
<stop offset="0.9" stop-color="#3C2CB8"/>
</radialGradient>
<radialGradient id="paint1_radial_541_392" cx="0" cy="0" r="1" gradientUnits="userSpaceOnUse" gradientTransform="translate(253.301 345.406) rotate(68.1539) scale(617.739 624.738)">
<stop stop-color="#85C2FF"/>
<stop offset="0.69" stop-color="#7588FF"/>
<stop offset="1" stop-color="#6459FE"/>
</radialGradient>
<linearGradient id="paint2_linear_541_392" x1="475.508" y1="375.584" x2="475.508" y2="828.251" gradientUnits="userSpaceOnUse">
<stop offset="0.801159" stop-color="#6864F6" stop-opacity="0"/>
<stop offset="1" stop-color="#5149DE"/>
</linearGradient>
<radialGradient id="paint3_radial_541_392" cx="0" cy="0" r="1" gradientUnits="userSpaceOnUse" gradientTransform="translate(605.769 360.495) rotate(113.326) scale(362.484 290.976)">
<stop stop-color="#BD96FF"/>
<stop offset="0.686685" stop-color="#BD96FF" stop-opacity="0"/>
</radialGradient>
<radialGradient id="paint4_radial_541_392" cx="0" cy="0" r="1" gradientUnits="userSpaceOnUse" gradientTransform="translate(709.507 254.331) rotate(-90) scale(188.611 238.057)">
<stop offset="0.268201" stop-color="#6868F7"/>
<stop offset="1" stop-color="#3923B1"/>
</radialGradient>
<radialGradient id="paint5_radial_541_392" cx="0" cy="0" r="1" gradientUnits="userSpaceOnUse" gradientTransform="translate(631.565 234.953) rotate(40.0516) scale(134.787 194.954)">
<stop offset="0.270711" stop-color="#A1D3FF"/>
<stop offset="0.813393" stop-color="#A1D3FF" stop-opacity="0"/>
</radialGradient>
<radialGradient id="paint6_radial_541_392" cx="0" cy="0" r="1" gradientUnits="userSpaceOnUse" gradientTransform="translate(784.615 231.645) rotate(-41.6581) scale(160.56 393.865)">
<stop stop-color="#E3ACFD"/>
<stop offset="0.816041" stop-color="#9FA2FF" stop-opacity="0"/>
</radialGradient>
<radialGradient id="paint7_radial_541_392" cx="0" cy="0" r="1" gradientUnits="userSpaceOnUse" gradientTransform="translate(426.589 192.361) rotate(-90) scale(226.333 285.67)">
<stop offset="0.268201" stop-color="#8282FF"/>
<stop offset="1" stop-color="#3923B1"/>
</radialGradient>
<radialGradient id="paint8_radial_541_392" cx="0" cy="0" r="1" gradientUnits="userSpaceOnUse" gradientTransform="translate(333.06 169.107) rotate(40.0516) scale(161.744 233.944)">
<stop offset="0.270711" stop-color="#A1D3FF"/>
<stop offset="0.813393" stop-color="#A1D3FF" stop-opacity="0"/>
</radialGradient>
<radialGradient id="paint9_radial_541_392" cx="0" cy="0" r="1" gradientUnits="userSpaceOnUse" gradientTransform="translate(516.72 165.136) rotate(-41.6581) scale(192.672 472.639)">
<stop stop-color="#E3ACFD"/>
<stop offset="0.816041" stop-color="#9FA2FF" stop-opacity="0"/>
</radialGradient>
<radialGradient id="paint10_radial_541_392" cx="0" cy="0" r="1" gradientUnits="userSpaceOnUse" gradientTransform="translate(162.533 469.889) rotate(45) scale(426.778)">
<stop offset="0.046875" stop-color="#688EFF"/>
<stop offset="0.946875" stop-color="#230F94"/>
</radialGradient>
<radialGradient id="paint11_radial_541_392" cx="0" cy="0" r="1" gradientUnits="userSpaceOnUse" gradientTransform="translate(313.422 650.955) rotate(90) scale(211.244 246.518)">
<stop offset="0.570647" stop-color="#6965F6" stop-opacity="0"/>
<stop offset="1" stop-color="#8F8FFF"/>
</radialGradient>
</defs>
</svg>
