<svg width="1006" height="1006" viewBox="0 0 1006 1006" fill="none" xmlns="http://www.w3.org/2000/svg">
<path d="M876.058 502.99C876.058 303.357 714.244 141.527 514.631 141.527C315.019 141.527 153.199 303.357 153.199 502.99C153.199 702.622 315.019 864.452 514.631 864.452C714.244 864.452 876.058 702.622 876.058 502.99Z" fill="url(#paint0_linear_543_452)"/>
<path d="M876.058 502.99C876.058 303.357 714.244 141.527 514.631 141.527C315.019 141.527 153.199 303.357 153.199 502.99C153.199 702.622 315.019 864.452 514.631 864.452C714.244 864.452 876.058 702.622 876.058 502.99Z" fill="url(#paint1_radial_543_452)"/>
<path d="M876.058 502.99C876.058 303.357 714.244 141.527 514.631 141.527C315.019 141.527 153.199 303.357 153.199 502.99C153.199 702.622 315.019 864.452 514.631 864.452C714.244 864.452 876.058 702.622 876.058 502.99Z" fill="url(#paint2_radial_543_452)"/>
<path d="M514.68 141.527C714.288 141.532 876.102 303.362 876.102 502.99C876.102 569.398 858.16 631.6 826.913 685.076L832.787 672.069C868.557 592.647 810.417 502.774 723.309 502.839L579.457 502.949C543.698 502.98 514.68 473.987 514.68 438.228V294.115C514.675 206.972 424.701 148.897 345.3 184.787L333.738 190.024C386.954 159.189 448.754 141.527 514.68 141.527Z" fill="url(#paint3_linear_543_452)"/>
<path d="M514.68 141.527C714.288 141.532 876.102 303.362 876.102 502.99C876.102 569.398 858.16 631.6 826.913 685.076L832.787 672.069C868.557 592.647 810.417 502.774 723.309 502.839L579.457 502.949C543.698 502.98 514.68 473.987 514.68 438.228V294.115C514.675 206.972 424.701 148.897 345.3 184.787L333.738 190.024C386.954 159.189 448.754 141.527 514.68 141.527Z" fill="url(#paint4_radial_543_452)"/>
<path d="M514.68 141.527C714.288 141.532 876.102 303.362 876.102 502.99C876.102 569.398 858.16 631.6 826.913 685.076L832.787 672.069C868.557 592.647 810.417 502.774 723.309 502.839L579.457 502.949C543.698 502.98 514.68 473.987 514.68 438.228V294.115C514.675 206.972 424.701 148.897 345.3 184.787L333.738 190.024C386.954 159.189 448.754 141.527 514.68 141.527Z" fill="url(#paint5_radial_543_452)"/>
<path d="M514.68 141.527C714.288 141.532 876.102 303.362 876.102 502.99C876.102 569.398 858.16 631.6 826.913 685.076L832.787 672.069C868.557 592.647 810.417 502.774 723.309 502.839L579.457 502.949C543.698 502.98 514.68 473.987 514.68 438.228V294.115C514.675 206.972 424.701 148.897 345.3 184.787L333.738 190.024C386.954 159.189 448.754 141.527 514.68 141.527Z" fill="url(#paint6_radial_543_452)"/>
<path d="M514.68 141.527C714.288 141.532 876.102 303.362 876.102 502.99C876.102 569.398 858.16 631.6 826.913 685.076L832.787 672.069C868.557 592.647 810.417 502.774 723.309 502.839L579.457 502.949C543.698 502.98 514.68 473.987 514.68 438.228V294.115C514.675 206.972 424.701 148.897 345.3 184.787L333.738 190.024C386.954 159.189 448.754 141.527 514.68 141.527Z" fill="url(#paint7_radial_543_452)"/>
<path d="M191.755 483.711H374.896C409.501 483.711 437.549 511.759 437.549 546.364V729.505C437.549 764.11 409.501 792.159 374.896 792.159H191.755C157.15 792.159 129.102 764.11 129.102 729.505V546.364C129.102 511.759 157.15 483.711 191.755 483.711Z" fill="url(#paint8_radial_543_452)"/>
<path d="M191.755 483.711H374.896C409.501 483.711 437.549 511.759 437.549 546.364V729.505C437.549 764.11 409.501 792.159 374.896 792.159H191.755C157.15 792.159 129.102 764.11 129.102 729.505V546.364C129.102 511.759 157.15 483.711 191.755 483.711Z" fill="url(#paint9_radial_543_452)"/>
<path d="M268.28 668.66V726.063H228.6V549.805H289.903C311.851 549.805 328.559 554.599 340.025 564.188C351.577 573.772 357.35 587.989 357.35 606.835C357.35 626.259 350.879 641.415 337.937 652.314C325.08 663.213 307.795 668.66 286.092 668.66H268.28ZM268.28 580.288V638.177H284.867C294.692 638.177 302.273 635.602 307.594 630.436C312.916 625.275 315.581 617.86 315.581 608.191C315.581 599.26 312.956 592.377 307.715 587.537C302.554 582.703 295.144 580.288 285.48 580.288H268.28Z" fill="white"/>
<defs>
<linearGradient id="paint0_linear_543_452" x1="477.956" y1="118.514" x2="35.0947" y2="542.18" gradientUnits="userSpaceOnUse">
<stop offset="0.0582736" stop-color="#FF7F48"/>
<stop offset="1" stop-color="#E5495B"/>
</linearGradient>
<radialGradient id="paint1_radial_543_452" cx="0" cy="0" r="1" gradientUnits="userSpaceOnUse" gradientTransform="translate(657.5 351.285) rotate(135) scale(725.725 1221.49)">
<stop offset="0.151523" stop-color="#AA1D2D"/>
<stop offset="0.380855" stop-color="#D12B18" stop-opacity="0.439216"/>
<stop offset="0.601996" stop-color="#FF3C00" stop-opacity="0"/>
</radialGradient>
<radialGradient id="paint2_radial_543_452" cx="0" cy="0" r="1" gradientUnits="userSpaceOnUse" gradientTransform="translate(27.0431 796.809) rotate(-25.2832) scale(687.952 1246.33)">
<stop offset="0.4067" stop-color="#FF66FB" stop-opacity="0.501961"/>
<stop offset="1" stop-color="#EA3D01" stop-opacity="0"/>
</radialGradient>
<linearGradient id="paint3_linear_543_452" x1="583.083" y1="583.423" x2="972.107" y2="295.09" gradientUnits="userSpaceOnUse">
<stop offset="0.310768" stop-color="#FF6E30"/>
<stop offset="0.634576" stop-color="#FFA05C"/>
</linearGradient>
<radialGradient id="paint4_radial_543_452" cx="0" cy="0" r="1" gradientUnits="userSpaceOnUse" gradientTransform="translate(453.942 546.213) rotate(11.8349) scale(467.281 445.48)">
<stop offset="0.78593" stop-color="#FFA05C" stop-opacity="0"/>
<stop offset="0.904889" stop-color="#FFCE84"/>
</radialGradient>
<radialGradient id="paint5_radial_543_452" cx="0" cy="0" r="1" gradientUnits="userSpaceOnUse" gradientTransform="translate(527.249 497.567) rotate(-33.1977) scale(471.838 451.224)">
<stop offset="0.295239" stop-color="#FF99E9" stop-opacity="0.8"/>
<stop offset="0.727968" stop-color="#FF99E9" stop-opacity="0"/>
</radialGradient>
<radialGradient id="paint6_radial_543_452" cx="0" cy="0" r="1" gradientUnits="userSpaceOnUse" gradientTransform="translate(474.263 552.75) rotate(-48.864) scale(502.365 458.799)">
<stop stop-color="#FD6EF9"/>
<stop offset="0.637205" stop-color="#FF9944"/>
<stop offset="0.85186" stop-color="#FCC479"/>
</radialGradient>
<radialGradient id="paint7_radial_543_452" cx="0" cy="0" r="1" gradientUnits="userSpaceOnUse" gradientTransform="translate(441.385 189.298) rotate(98.3949) scale(255.692 577.867)">
<stop offset="0.144283" stop-color="#FF8D13"/>
<stop offset="0.537266" stop-color="#FF7F29" stop-opacity="0"/>
</radialGradient>
<radialGradient id="paint8_radial_543_452" cx="0" cy="0" r="1" gradientUnits="userSpaceOnUse" gradientTransform="translate(129.064 483.711) rotate(45) scale(436.211)">
<stop stop-color="#F8193E"/>
<stop offset="0.939062" stop-color="#920616"/>
</radialGradient>
<radialGradient id="paint9_radial_543_452" cx="0" cy="0" r="1" gradientUnits="userSpaceOnUse" gradientTransform="translate(283.287 668.78) rotate(90) scale(215.913 245.794)">
<stop offset="0.575893" stop-color="#FFB055" stop-opacity="0"/>
<stop offset="0.973806" stop-color="#FFF2BE" stop-opacity="0.301961"/>
</radialGradient>
</defs>
</svg>
