<svg width="1006" height="1006" viewBox="0 0 1006 1006" fill="none" xmlns="http://www.w3.org/2000/svg">
<path d="M259.92 679.375L531.52 347.828L841.921 563.362V784.329C841.921 821.771 811.463 852.229 774.021 852.229H376.32C312.106 852.229 259.92 800.043 259.92 735.829V679.375Z" fill="url(#paint0_radial_541_408)"/>
<path d="M259.92 445.604C259.92 397.297 298.914 358.303 347.22 358.303H742.787L841.921 309.027V551.528C841.921 588.97 811.463 619.428 774.021 619.428H376.32C312.106 619.428 259.92 671.614 259.92 735.828V445.604Z" fill="url(#paint1_linear_541_408)"/>
<path d="M259.92 445.604C259.92 397.297 298.914 358.303 347.22 358.303H742.787L841.921 309.027V551.528C841.921 588.97 811.463 619.428 774.021 619.428H376.32C312.106 619.428 259.92 671.614 259.92 735.828V445.604Z" fill="url(#paint2_radial_541_408)" fill-opacity="0.6"/>
<path d="M259.92 445.604C259.92 397.297 298.914 358.303 347.22 358.303H742.787L841.921 309.027V551.528C841.921 588.97 811.463 619.428 774.021 619.428H376.32C312.106 619.428 259.92 671.614 259.92 735.828V445.604Z" fill="url(#paint3_radial_541_408)" fill-opacity="0.1"/>
<path d="M259.92 270.228C259.92 206.014 312.106 153.828 376.32 153.828H774.021C811.463 153.828 841.921 184.286 841.921 221.728V318.728C841.921 356.17 811.463 386.628 774.021 386.628H376.32C312.106 386.628 259.92 438.815 259.92 503.029V270.228Z" fill="url(#paint4_linear_541_408)"/>
<path d="M259.92 270.228C259.92 206.014 312.106 153.828 376.32 153.828H774.021C811.463 153.828 841.921 184.286 841.921 221.728V318.728C841.921 356.17 811.463 386.628 774.021 386.628H376.32C312.106 386.628 259.92 438.815 259.92 503.029V270.228Z" fill="url(#paint5_radial_541_408)" fill-opacity="0.8"/>
<path d="M410.27 483.627H225.97C191.148 483.627 162.92 511.855 162.92 546.677V730.977C162.92 765.799 191.148 794.027 225.97 794.027H410.27C445.092 794.027 473.32 765.799 473.32 730.977V546.677C473.32 511.855 445.092 483.627 410.27 483.627Z" fill="url(#paint6_radial_541_408)"/>
<path d="M410.27 483.627H225.97C191.148 483.627 162.92 511.855 162.92 546.677V730.977C162.92 765.799 191.148 794.027 225.97 794.027H410.27C445.092 794.027 473.32 765.799 473.32 730.977V546.677C473.32 511.855 445.092 483.627 410.27 483.627Z" fill="url(#paint7_radial_541_408)" fill-opacity="0.65"/>
<path d="M424.619 550.162L386.401 727.478H340.811L318.307 621.166L294.639 727.672H248.467L211.801 550.356H249.437L272.135 667.338L294.639 550.356H340.811L364.285 667.338L386.401 550.356H424.619V550.162Z" fill="white"/>
<defs>
<radialGradient id="paint0_radial_541_408" cx="0" cy="0" r="1" gradientUnits="userSpaceOnUse" gradientTransform="translate(863.546 847.65) scale(922.859 390.911)">
<stop offset="0.18" stop-color="#1657F4"/>
<stop offset="0.57" stop-color="#0036C4"/>
</radialGradient>
<linearGradient id="paint1_linear_541_408" x1="259.92" y1="522.428" x2="705.539" y2="522.428" gradientUnits="userSpaceOnUse">
<stop stop-color="#66C0FF"/>
<stop offset="0.26" stop-color="#0094F0"/>
</linearGradient>
<radialGradient id="paint2_radial_541_408" cx="0" cy="0" r="1" gradientUnits="userSpaceOnUse" gradientTransform="translate(793.509 426.904) rotate(133.55) scale(569.585 1403.01)">
<stop offset="0.14" stop-color="#D471FF"/>
<stop offset="0.83" stop-color="#509DF5" stop-opacity="0"/>
</radialGradient>
<radialGradient id="paint3_radial_541_408" cx="0" cy="0" r="1" gradientUnits="userSpaceOnUse" gradientTransform="translate(780.365 551.504) rotate(90) scale(361.229 1972.01)">
<stop offset="0.28" stop-color="#4F006F" stop-opacity="0"/>
<stop offset="1" stop-color="#4F006F"/>
</radialGradient>
<linearGradient id="paint4_linear_541_408" x1="259.92" y1="324.16" x2="841.921" y2="333.86" gradientUnits="userSpaceOnUse">
<stop stop-color="#9DEAFF"/>
<stop offset="0.2" stop-color="#3BD5FF"/>
</linearGradient>
<radialGradient id="paint5_radial_541_408" cx="0" cy="0" r="1" gradientUnits="userSpaceOnUse" gradientTransform="translate(822.699 94.6029) rotate(166.85) scale(572.107 1370.42)">
<stop offset="0.06" stop-color="#E4A7FE"/>
<stop offset="0.54" stop-color="#E4A7FE" stop-opacity="0"/>
</radialGradient>
<radialGradient id="paint6_radial_541_408" cx="0" cy="0" r="1" gradientUnits="userSpaceOnUse" gradientTransform="translate(159.512 442.324) rotate(45) scale(439.023)">
<stop offset="0.08" stop-color="#367AF2"/>
<stop offset="0.87" stop-color="#001A8F"/>
</radialGradient>
<radialGradient id="paint7_radial_541_408" cx="0" cy="0" r="1" gradientUnits="userSpaceOnUse" gradientTransform="translate(373.115 668.936) rotate(90) scale(217.28 247.738)">
<stop offset="0.59" stop-color="#2763E5" stop-opacity="0"/>
<stop offset="0.97" stop-color="#58AAFE"/>
</radialGradient>
</defs>
</svg>
