<svg width="1008" height="1008" viewBox="0 0 1008 1008" fill="none" xmlns="http://www.w3.org/2000/svg">
<path d="M330.224 137.799L392.736 178.324L407.395 260.238L501.81 242.13L593.639 254.202L646.236 151.595H705.516L726.856 296.236L770.831 429.238L759.622 559.437L782.687 642.859L751.43 745.466L768.46 891.401L239.041 890.108L261.46 755.382L238.826 710.114L231.928 631.65L252.837 537.88L231.928 480.541L248.31 383.323L297.458 320.81L303.494 223.592L330.224 137.799Z" fill="#D9D9D9"/>
<path fill-rule="evenodd" clip-rule="evenodd" d="M360.01 120.139C367.615 123.132 374.481 128.061 380.713 134.575C391.099 145.348 399.866 160.77 406.556 179.043C413.281 197.421 417.646 217.772 419.301 238.193C441.469 225.652 466.07 218.015 491.443 215.8L493.239 215.659C523.87 213.195 554.149 218.722 580.555 232.348C584.111 234.214 587.597 236.221 591.012 238.334C592.773 218.3 597.068 198.407 603.687 180.451C610.377 162.143 619.144 146.757 629.495 135.948C635.28 129.69 642.356 124.764 650.233 121.512C659.281 117.991 668.893 117.358 678.258 120.034C692.377 124.047 704.489 132.99 714.03 145.982C722.762 157.847 729.311 173.057 733.782 191.295C741.88 224.18 743.288 267.451 737.831 319.63L739.697 321.038L740.612 321.707C767.265 341.987 785.82 370.893 795.643 404.446C810.959 456.801 803.248 515.529 776.842 548.378L776.208 549.118L776.278 549.223C790.96 576.052 799.868 604.395 801.769 633.723L801.84 634.779C804.093 672.276 794.798 710.02 773.18 747.094L772.934 747.446L773.286 748.291C789.904 789.027 795.115 830.045 788.707 871.027L788.496 872.4C787.503 878.387 784.177 883.735 779.246 887.273C774.316 890.811 768.184 892.249 762.195 891.272C759.23 890.809 756.384 889.765 753.823 888.201C751.261 886.637 749.034 884.582 747.268 882.155C745.501 879.728 744.231 876.977 743.53 874.058C742.83 871.14 742.711 868.112 743.183 865.148C749.062 828.777 743.535 792.302 726.283 755.192C724.673 751.744 723.958 747.947 724.204 744.15C724.45 740.353 725.65 736.679 727.691 733.468L727.832 733.257C749.098 700.725 757.9 668.826 755.998 637.49C754.379 610.063 744.556 583.129 727.832 557.462C724.579 552.472 723.42 546.403 724.606 540.566C725.792 534.728 729.227 529.592 734.169 526.267L734.486 526.056C743.042 520.458 750.928 506.163 754.907 486.623C759.297 463.517 758.151 439.699 751.562 417.121C744.344 392.476 731.141 371.914 712.657 357.866C691.708 341.881 663.964 334.171 628.861 336.389C624.271 336.687 619.697 335.602 615.73 333.273C611.763 330.945 608.586 327.48 606.61 323.326C595.554 299.913 579.429 283.154 559.325 272.767C540.024 263.134 518.415 259.086 496.936 261.078C453.101 264.564 414.442 289.28 402.929 320.439C401.301 324.825 398.371 328.608 394.532 331.282C390.694 333.957 386.13 335.394 381.452 335.403C343.885 335.473 314.803 344.275 293.537 360.154C275.158 373.886 262.624 393.074 256.005 416.065C250.015 437.706 249.195 460.452 253.611 482.468C257.554 502.114 265.265 518.381 274.102 527.148L274.384 527.394C281.848 534.682 283.432 546.054 278.221 555.033C265.546 576.932 256.075 609.57 254.526 640.941C252.766 676.783 261.075 707.907 279.841 730.229L280.404 730.898C283.236 734.199 285.058 738.245 285.651 742.553C286.244 746.861 285.584 751.249 283.749 755.192C263.469 798.709 257.237 834.481 263.962 862.648C265.171 868.505 264.046 874.602 260.827 879.643C257.609 884.683 252.55 888.268 246.728 889.636C240.906 891.003 234.78 890.044 229.654 886.963C224.528 883.882 220.807 878.923 219.283 873.14C210.727 837.298 216.536 796.245 235.936 749.981L236.429 748.749L236.147 748.326C226.613 734.243 219.497 718.666 215.093 702.239L214.917 701.57C209.573 681.074 207.47 659.869 208.685 638.723C210.234 606.683 218.473 573.869 230.584 547.533L231.007 546.618L230.937 546.547C220.621 531.83 212.98 512.994 208.755 492.15L208.579 491.305C202.758 462.232 203.88 432.195 211.854 403.637C221.078 371.421 239.211 343.747 265.934 323.749C268.046 322.165 270.264 320.58 272.482 319.101C266.884 266.535 268.293 222.983 276.426 189.887C280.897 171.649 287.481 156.439 296.213 144.574C305.719 131.617 317.831 122.674 331.949 118.625C341.315 115.949 350.962 116.548 360.01 120.104V120.139ZM504.928 440.183C537.883 440.183 568.303 451.203 591.047 470.286C613.229 488.841 626.432 513.768 626.432 538.59C626.432 569.855 612.137 594.219 586.541 609.781C564.712 622.985 535.453 629.393 501.935 629.393C466.41 629.393 436.06 620.274 414.161 603.55C392.437 587.002 380.255 563.764 380.255 538.59C380.255 513.698 394.268 488.7 417.435 470.075C440.954 451.168 472.008 440.183 504.928 440.183ZM504.928 471.73C480.501 471.516 456.723 479.583 437.469 494.615C421.238 507.642 412.048 524.014 412.048 538.625C412.048 553.695 419.442 567.813 433.525 578.552C449.545 590.769 473.099 597.846 501.935 597.846C530.067 597.846 553.797 592.67 569.958 582.847C586.259 572.989 594.603 558.694 594.603 538.59C594.603 523.697 585.942 507.255 570.556 494.369C553.515 480.109 530.419 471.73 504.928 471.73ZM528.236 514.332L528.377 514.473C532.602 519.789 531.721 527.5 526.405 531.725L516.124 539.823V555.525C516.105 559.021 514.701 562.367 512.22 564.828C509.738 567.29 506.381 568.668 502.886 568.658C499.39 568.668 496.033 567.29 493.552 564.828C491.07 562.367 489.666 559.021 489.647 555.525V539.33L480.106 531.654C478.847 530.646 477.801 529.398 477.027 527.983C476.253 526.568 475.767 525.013 475.597 523.41C475.426 521.806 475.575 520.184 476.035 518.638C476.495 517.092 477.256 515.652 478.275 514.402C480.353 511.872 483.346 510.265 486.602 509.928C489.859 509.592 493.117 510.555 495.668 512.606L503.238 518.662L510.984 512.536C513.526 510.528 516.752 509.591 519.975 509.927C523.197 510.262 526.161 511.843 528.236 514.332ZM350.786 446.767C367.615 446.767 381.311 460.498 381.311 477.433C381.321 485.551 378.107 493.341 372.377 499.091C366.647 504.841 358.868 508.081 350.751 508.1C342.645 508.072 334.881 504.832 329.159 499.091C323.438 493.349 320.225 485.574 320.225 477.469C320.206 469.351 323.411 461.557 329.134 455.801C334.858 450.044 342.668 446.795 350.786 446.767ZM657.31 446.767C674.21 446.767 687.87 460.498 687.87 477.433C687.88 485.551 684.666 493.341 678.936 499.091C673.206 504.841 665.427 508.081 657.31 508.1C649.204 508.072 641.44 504.832 635.718 499.091C629.997 493.349 626.784 485.574 626.784 477.469C626.765 469.351 629.97 461.557 635.693 455.801C641.417 450.044 649.192 446.795 657.31 446.767ZM343.638 162.741L343.533 162.812C339.454 164.585 335.971 167.494 333.498 171.191L333.322 171.402C328.464 178.057 324.239 187.845 321.07 200.696C315.084 225.06 313.465 258.121 316.704 298.645C331.844 294.139 348.356 291.322 366.137 290.301L366.489 290.266L367.158 289.069C368.777 286.182 370.502 283.4 372.368 280.654C376.699 253.508 373.143 221.081 363.461 194.605C358.743 181.789 353.004 171.719 347.511 165.98C346.377 164.787 345.114 163.724 343.744 162.812L343.638 162.741ZM666.64 164.15L666.569 164.185C665.199 165.098 663.936 166.16 662.802 167.354C657.309 173.092 651.535 183.197 646.853 196.013C636.642 223.969 633.227 258.543 638.755 286.569L640.797 289.984L641.078 290.477H642.135C659.608 290.482 676.991 292.995 693.75 297.941C696.778 258.367 695.088 226.011 689.243 202.104C686.075 189.253 681.85 179.465 676.956 172.811L676.815 172.6C674.348 168.889 670.864 165.968 666.781 164.185H666.64V164.15Z" fill="black"/>
</svg>
