<svg width="1008" height="1008" viewBox="0 0 1008 1008" fill="none" xmlns="http://www.w3.org/2000/svg">
<path d="M314.928 105.408L382.896 149.47L398.834 238.532L501.488 218.844L601.331 231.969L658.518 120.408H722.97L746.173 277.672L793.985 422.279L781.797 563.84L806.875 654.542L772.891 766.103L791.407 924.773L215.789 923.367L240.164 776.884L215.555 727.666L208.055 642.355L230.789 540.403L208.055 478.06L225.867 372.358L279.304 304.39L285.866 198.688L314.928 105.408Z" fill="#D9D9D9"/>
<path fill-rule="evenodd" clip-rule="evenodd" d="M347.314 86.2074C355.583 89.4612 363.048 94.8205 369.824 101.902C381.116 113.616 390.648 130.383 397.922 150.251C405.233 170.234 409.98 192.36 411.779 214.563C435.881 200.927 462.63 192.625 490.216 190.216L492.169 190.063C525.473 187.383 558.395 193.393 587.105 208.208C590.971 210.237 594.761 212.419 598.475 214.716C600.389 192.934 605.059 171.305 612.256 151.782C619.529 131.876 629.061 115.148 640.315 103.395C646.605 96.5916 654.298 91.2362 662.863 87.7003C672.701 83.8722 683.152 83.1832 693.334 86.0925C708.685 90.4565 721.853 100.18 732.227 114.305C741.721 127.206 748.841 143.743 753.703 163.573C762.508 199.327 764.039 246.374 758.105 303.106L760.134 304.637L761.13 305.365C790.108 327.414 810.282 358.843 820.962 395.325C837.614 452.248 829.231 516.1 800.52 551.816L799.831 552.62L799.908 552.735C815.871 581.905 825.556 612.721 827.623 644.609L827.7 645.757C830.15 686.526 820.044 727.563 796.539 767.873L796.271 768.256L796.654 769.174C814.723 813.465 820.388 858.062 813.421 902.621L813.191 904.114C812.112 910.623 808.495 916.438 803.135 920.284C797.774 924.131 791.107 925.695 784.596 924.633C781.371 924.129 778.278 922.995 775.493 921.294C772.708 919.593 770.286 917.359 768.365 914.72C766.445 912.082 765.064 909.09 764.302 905.917C763.54 902.744 763.412 899.451 763.924 896.228C770.317 856.684 764.307 817.026 745.549 776.678C743.799 772.929 743.022 768.8 743.29 764.672C743.557 760.544 744.861 756.549 747.08 753.058L747.234 752.829C770.355 717.457 779.925 682.775 777.858 648.705C776.097 618.884 765.417 589.599 747.234 561.693C743.697 556.267 742.437 549.668 743.727 543.322C745.016 536.975 748.751 531.391 754.124 527.776L754.469 527.546C763.771 521.46 772.346 505.918 776.672 484.672C781.444 459.549 780.198 433.654 773.035 409.106C765.187 382.309 750.832 359.953 730.735 344.679C707.957 327.3 677.792 318.916 639.626 321.328C634.636 321.652 629.662 320.472 625.35 317.941C621.037 315.409 617.582 311.641 615.433 307.126C603.413 281.669 585.88 263.447 564.022 252.154C543.036 241.681 519.542 237.279 496.188 239.445C448.529 243.235 406.496 270.108 393.979 303.987C392.208 308.755 389.022 312.868 384.849 315.776C380.676 318.683 375.714 320.247 370.627 320.256C329.782 320.333 298.162 329.903 275.04 347.167C255.058 362.097 241.43 382.96 234.233 407.957C227.721 431.487 226.829 456.217 231.63 480.155C235.917 501.515 244.301 519.201 253.909 528.733L254.216 529.001C262.331 536.925 264.054 549.29 258.388 559.051C244.607 582.862 234.31 618.348 232.625 652.456C230.711 691.426 239.745 725.266 260.149 749.536L260.762 750.264C263.841 753.852 265.821 758.251 266.466 762.936C267.111 767.62 266.393 772.391 264.398 776.678C242.349 823.993 235.573 862.886 242.884 893.51C244.199 899.879 242.976 906.508 239.476 911.988C235.977 917.469 230.477 921.367 224.146 922.853C217.816 924.34 211.156 923.297 205.583 919.948C200.01 916.598 195.964 911.206 194.306 904.918C185.004 865.948 191.32 821.313 212.413 771.012L212.949 769.672L212.643 769.213C202.276 753.9 194.539 736.964 189.751 719.103L189.559 718.376C183.749 696.092 181.463 673.036 182.784 650.045C184.468 615.209 193.426 579.532 206.594 550.898L207.054 549.902L206.977 549.826C195.761 533.824 187.454 513.344 182.86 490.682L182.669 489.763C176.34 458.153 177.559 425.495 186.229 394.444C196.258 359.417 215.973 329.329 245.028 307.585C247.325 305.862 249.737 304.14 252.148 302.532C246.062 245.379 247.593 198.025 256.436 162.042C261.298 142.212 268.456 125.675 277.95 112.774C288.285 98.6869 301.454 88.9636 316.805 84.5613C326.987 81.6519 337.476 82.3027 347.314 86.1691V86.2074ZM504.878 434.18C540.709 434.18 573.783 446.161 598.513 466.91C622.63 487.084 636.985 514.186 636.985 541.174C636.985 575.168 621.443 601.658 593.613 618.578C569.879 632.933 538.067 639.9 501.624 639.9C462.999 639.9 430.001 629.986 406.19 611.802C382.571 593.81 369.326 568.545 369.326 541.174C369.326 514.11 384.562 486.93 409.75 466.68C435.322 446.123 469.086 434.18 504.878 434.18ZM504.878 468.479C478.32 468.247 452.467 477.018 431.532 493.362C413.885 507.525 403.893 525.326 403.893 541.213C403.893 557.597 411.932 572.947 427.245 584.623C444.662 597.906 470.272 605.601 501.624 605.601C532.211 605.601 558.012 599.974 575.583 589.293C593.307 578.575 602.379 563.033 602.379 541.174C602.379 524.982 592.962 507.104 576.233 493.094C557.706 477.59 532.593 468.479 504.878 468.479ZM530.22 514.799L530.373 514.952C534.967 520.732 534.01 529.116 528.229 533.71L517.051 542.514V559.587C517.031 563.388 515.504 567.025 512.806 569.702C510.108 572.379 506.458 573.876 502.658 573.866C498.857 573.876 495.208 572.379 492.509 569.702C489.811 567.025 488.284 563.388 488.264 559.587V541.978L477.89 533.633C476.522 532.536 475.384 531.18 474.542 529.641C473.701 528.103 473.172 526.413 472.987 524.669C472.802 522.925 472.964 521.162 473.464 519.481C473.964 517.8 474.792 516.235 475.9 514.875C478.159 512.125 481.413 510.377 484.953 510.011C488.494 509.646 492.036 510.692 494.81 512.923L503.041 519.507L511.462 512.847C514.227 510.663 517.734 509.645 521.238 510.009C524.742 510.374 527.965 512.093 530.22 514.799ZM337.285 441.338C355.583 441.338 370.474 456.268 370.474 474.681C370.484 483.507 366.991 491.976 360.76 498.228C354.53 504.48 346.073 508.003 337.247 508.023C328.434 507.993 319.992 504.471 313.771 498.228C307.55 491.986 304.057 483.532 304.057 474.719C304.037 465.893 307.521 457.419 313.744 451.16C319.967 444.901 328.459 441.368 337.285 441.338ZM670.557 441.338C688.932 441.338 703.785 456.268 703.785 474.681C703.795 483.507 700.301 491.976 694.071 498.228C687.841 504.48 679.383 508.003 670.557 508.023C661.744 507.993 653.303 504.471 647.082 498.228C640.861 491.986 637.368 483.532 637.368 474.719C637.347 465.893 640.832 457.419 647.055 451.16C653.278 444.901 661.731 441.368 670.557 441.338ZM329.514 132.527L329.399 132.604C324.964 134.532 321.177 137.695 318.489 141.714L318.298 141.944C313.015 149.179 308.421 159.821 304.976 173.794C298.468 200.284 296.707 236.23 300.229 280.291C316.69 275.391 334.643 272.328 353.975 271.218L354.358 271.18L355.085 269.878C356.846 266.739 358.722 263.715 360.751 260.729C365.459 231.215 361.593 195.958 351.066 167.171C345.936 153.237 339.697 142.289 333.725 136.049C332.492 134.752 331.118 133.596 329.629 132.604L329.514 132.527ZM680.702 134.058L680.625 134.097C679.136 135.089 677.762 136.245 676.529 137.542C670.557 143.782 664.279 154.768 659.188 168.702C648.086 199.097 644.373 236.689 650.383 267.161L652.604 270.874L652.91 271.41H654.058C673.057 271.415 691.956 274.148 710.178 279.525C713.47 236.498 711.633 201.318 705.278 175.325C701.833 161.352 697.239 150.71 691.918 143.475L691.765 143.246C689.082 139.212 685.294 136.035 680.855 134.097H680.702V134.058Z" fill="black"/>
</svg>
