<svg width="1000" height="1000" viewBox="0 0 1000 1000" fill="none" xmlns="http://www.w3.org/2000/svg">
<g clip-path="url(#clip0_498_283)">
<path d="M933.715 399.907H619.449C615.714 399.906 612.015 399.169 608.564 397.738C605.114 396.308 601.979 394.212 599.338 391.57C596.697 388.927 594.603 385.791 593.174 382.34C591.746 378.888 591.011 375.189 591.012 371.453V43.9066C591.027 38.1344 589.902 32.4161 587.699 27.0806C585.497 21.7452 582.261 16.8978 578.178 12.8173C574.096 8.73688 569.247 5.50385 563.91 3.30421C558.573 1.10458 552.854 -0.0182498 547.082 0.000307831H434.832C429.058 -0.0213416 423.336 1.09915 417.996 3.2973C412.656 5.49545 407.804 8.72787 403.718 12.8085C399.632 16.8892 396.394 21.7376 394.189 27.0746C391.984 32.4117 390.857 38.132 390.871 43.9066V369.266C390.884 373.293 390.1 377.283 388.566 381.006C387.032 384.729 384.777 388.113 381.931 390.962C379.086 393.812 375.705 396.071 371.983 397.61C368.262 399.149 364.273 399.937 360.246 399.93L257.215 400.297C240.215 400.297 226.184 386.625 226.543 369.625L227.278 43.9456C227.297 38.1685 226.174 32.4445 223.972 27.1035C221.77 21.7624 218.533 16.9098 214.447 12.8251C210.362 8.74037 205.509 5.50429 200.167 3.30324C194.826 1.10219 189.102 -0.0203361 183.324 0.000307831H71.0822C65.3062 -0.0161863 59.5839 1.10918 54.2444 3.3117C48.9048 5.51422 44.0532 8.75045 39.9686 12.8343C35.884 16.9182 32.6469 21.7692 30.4434 27.1084C28.24 32.4476 27.1136 38.1696 27.1291 43.9456V960.86C27.1291 982.242 44.4728 1000 66.2697 1000H933.715C944.092 999.988 954.04 995.859 961.375 988.519C968.71 981.179 972.834 971.229 972.84 960.852V439.024C972.873 433.877 971.884 428.775 969.929 424.013C967.975 419.252 965.094 414.926 961.454 411.287C957.814 407.648 953.488 404.768 948.726 402.814C943.964 400.861 938.862 399.872 933.715 399.907ZM786.395 744.078C786.351 757.584 780.967 770.524 771.416 780.074C761.865 789.623 748.924 795.006 735.418 795.047H646.793C633.29 795.002 620.353 789.617 610.806 780.068C601.258 770.519 595.875 757.581 595.832 744.078V655.469C595.875 641.966 601.258 629.028 610.806 619.479C620.353 609.93 633.29 604.546 646.793 604.5H735.41C748.915 604.541 761.855 609.923 771.405 619.471C780.956 629.019 786.342 641.957 786.387 655.461L786.395 744.078Z" fill="url(#paint0_radial_498_283)"/>
</g>
<defs>
<radialGradient id="paint0_radial_498_283" cx="0" cy="0" r="1" gradientUnits="userSpaceOnUse" gradientTransform="translate(682.5 698.5) rotate(144.577) scale(1049.83 992.841)">
<stop stop-color="#FF6600"/>
<stop offset="1" stop-color="#702D00"/>
</radialGradient>
<clipPath id="clip0_498_283">
<rect width="1000" height="1000" fill="white"/>
</clipPath>
</defs>
</svg>
